<?xml version="1.0" standalone="no"?>
<!DOCTYPE svg PUBLIC "-//W3C//DTD SVG 20010904//EN"
 "http://www.w3.org/TR/2001/REC-SVG-20010904/DTD/svg10.dtd">
<svg version="1.0" xmlns="http://www.w3.org/2000/svg"
 width="517.000000pt" height="517.000000pt" viewBox="0 0 517.000000 517.000000"
 preserveAspectRatio="xMidYMid meet">
<metadata>
Created by potrace 1.14, written by Peter Selinger 2001-2017
</metadata>
<g transform="translate(0.000000,517.000000) scale(0.100000,-0.100000)"
fill="#000000" stroke="none">
<path d="M3873 4627 c-55 -49 -153 -110 -146 -90 5 11 3 14 -6 8 -10 -6 -11
-3 -2 14 9 16 18 20 36 15 20 -5 27 -1 35 20 5 15 17 29 25 32 31 12 14 24
-34 24 -180 0 -405 -63 -577 -161 -135 -77 -254 -196 -254 -254 0 -23 -7 -34
-29 -46 -23 -13 -34 -33 -54 -95 -50 -153 -62 -240 -61 -479 0 -238 13 -392
44 -502 28 -103 103 -257 144 -298 20 -20 36 -40 36 -46 0 -20 45 -4 56 21 7
14 18 38 26 54 7 16 21 31 30 34 10 2 16 7 14 11 -3 4 15 40 39 80 24 39 55
102 70 139 43 106 48 114 83 135 19 12 31 25 28 33 -3 7 -1 16 3 19 5 2 11 -7
14 -22 4 -23 -2 -34 -35 -62 -31 -27 -57 -70 -120 -200 -44 -91 -93 -185 -109
-208 -40 -57 -37 -84 12 -138 47 -50 179 -155 197 -155 16 0 26 43 18 78 -6
26 -6 26 9 8 8 -11 15 -26 15 -33 0 -39 73 22 86 72 7 29 67 72 112 81 27 6
36 15 54 55 11 27 27 49 34 49 7 0 21 11 30 25 9 14 24 25 34 25 9 0 35 12 56
26 21 15 45 27 54 29 8 1 16 13 18 28 2 14 9 28 17 31 10 4 12 -3 8 -32 -6
-38 -39 -85 -54 -76 -13 7 -146 -74 -169 -104 -11 -13 -20 -32 -20 -42 0 -11
-14 -21 -39 -29 -53 -15 -201 -171 -201 -210 0 -52 46 -68 87 -29 l23 21 0
-35 c0 -24 9 -47 25 -67 27 -31 87 -73 102 -70 22 4 33 -3 33 -18 0 -19 60
-63 85 -63 8 0 15 6 16 13 0 6 5 -2 10 -20 16 -54 149 -125 149 -78 0 7 -7 18
-15 22 -12 7 -9 11 14 20 29 10 29 10 19 -18 -16 -47 -2 -74 81 -164 74 -80
94 -110 120 -178 6 -15 22 -32 36 -37 30 -11 33 -30 5 -30 -11 0 -23 -7 -26
-15 -9 -22 14 -235 26 -250 7 -8 7 -16 2 -19 -5 -3 -12 -27 -15 -53 -10 -78
-30 -137 -60 -172 -32 -39 -42 -69 -42 -138 0 -35 -3 -49 -10 -42 -11 11 -12
14 -14 71 -1 38 -2 40 -18 26 -19 -15 -53 -13 -53 3 0 5 -8 9 -19 9 -13 0 -20
-9 -25 -30 -7 -36 -6 -46 3 -43 67 17 64 18 57 -13 -5 -24 -1 -35 23 -58 16
-15 34 -25 40 -22 15 10 69 -21 76 -43 3 -11 21 -29 39 -41 28 -17 50 -20 144
-20 112 0 159 11 205 49 20 16 23 51 4 51 -7 0 -18 9 -25 20 -7 11 -19 20 -27
20 -18 0 -20 -31 -2 -49 10 -10 7 -16 -12 -32 -21 -18 -26 -18 -46 -5 -23 15
-80 17 -102 3 -22 -14 -63 4 -69 29 -5 18 4 40 32 82 30 45 40 70 45 117 l6
60 1 -72 c2 -86 15 -119 52 -132 27 -9 28 -8 34 27 4 21 7 66 9 102 2 53 5 65
20 68 15 3 17 -1 11 -23 -6 -25 -5 -26 15 -15 12 6 31 30 41 53 23 55 95 125
103 103 4 -10 -7 -26 -33 -48 -22 -17 -40 -38 -40 -46 0 -8 -13 -31 -30 -52
-24 -30 -29 -44 -24 -69 8 -37 34 -64 34 -34 0 11 14 32 30 48 17 16 29 34 27
39 -2 5 2 26 9 45 10 29 19 37 57 48 26 7 53 23 61 35 15 21 16 21 36 3 29
-27 46 -8 31 35 -13 40 -7 52 25 44 17 -4 24 -2 24 9 0 15 29 32 38 22 4 -3 1
-20 -6 -37 -18 -49 22 -98 81 -98 24 0 28 3 22 18 -4 9 -10 27 -12 40 -6 25
-14 27 -30 11 -20 -20 -34 -6 -18 19 19 26 40 28 63 5 16 -16 17 -15 20 13 5
60 12 76 26 65 15 -13 26 -5 26 21 0 11 11 23 25 28 27 10 30 21 14 51 -7 15
-7 24 1 34 15 18 -20 55 -51 55 -18 0 -20 2 -9 15 7 9 26 25 43 37 l29 21 -14
-22 c-9 -16 -10 -26 -2 -39 19 -29 50 -26 74 8 19 27 21 39 15 86 -7 57 -16
64 -49 39 -25 -19 -46 -19 -46 0 0 10 6 12 18 8 15 -6 15 -5 3 10 -17 22 0 69
35 92 28 18 32 58 9 112 -8 19 -15 62 -15 94 0 47 -3 59 -16 59 -11 0 -14 6
-9 20 13 41 -64 215 -91 205 -7 -2 -10 4 -7 13 2 9 -10 38 -26 65 -23 34 -39
49 -61 53 -19 4 -30 13 -30 24 0 20 -33 53 -43 43 -4 -3 -7 -26 -7 -50 0 -24
-5 -43 -11 -43 -5 0 -7 5 -4 10 3 6 1 10 -4 10 -6 0 -11 -6 -11 -14 0 -7 -11
-16 -24 -18 -32 -6 -48 3 -36 22 7 10 10 11 10 3 0 -7 7 -13 15 -13 8 0 15 8
15 18 0 11 9 27 20 37 32 29 26 68 -16 104 -40 36 -53 36 -73 0 -17 -31 -7
-89 12 -70 21 21 31 11 10 -11 -11 -13 -26 -32 -32 -43 -10 -16 -11 0 -7 84
l6 103 -27 24 c-95 82 -138 114 -218 166 -49 32 -100 58 -114 58 -13 0 -39
-11 -57 -25 -44 -34 -51 -31 -20 6 32 38 33 54 4 74 -145 99 -256 165 -281
165 -9 0 -17 6 -17 14 0 8 -15 26 -32 40 -43 33 -49 41 -97 106 -34 45 -41 62
-41 101 0 31 -6 55 -19 70 l-19 24 -22 -20 c-12 -11 -36 -40 -53 -65 -16 -25
-42 -58 -57 -75 -15 -16 -30 -42 -34 -57 -4 -19 -19 -34 -47 -49 -23 -11 -43
-18 -45 -16 -3 2 0 16 6 31 5 15 8 31 5 36 -8 13 41 40 52 29 6 -6 22 11 46
48 20 32 60 84 90 115 30 32 59 70 65 85 14 37 32 178 25 203 -13 50 -88 2
-98 -63 -4 -23 -15 -54 -26 -67 l-19 -25 10 28 c17 47 13 122 -8 140 -10 10
-23 17 -28 17 -6 0 -58 -31 -117 -70 -73 -48 -116 -70 -137 -70 -44 0 -92 -23
-120 -56 -14 -16 -52 -40 -85 -53 -33 -13 -109 -48 -169 -78 -59 -30 -111 -52
-114 -49 -3 3 -3 7 -1 9 19 15 209 137 226 146 12 6 31 11 42 11 14 0 21 6 21
20 0 13 5 18 15 14 9 -4 15 0 15 10 0 9 7 16 15 16 21 0 19 11 -10 49 -19 26
-22 38 -14 52 13 25 14 25 38 -16 11 -19 33 -40 47 -45 39 -15 140 21 206 74
92 73 131 94 156 85 16 -6 33 -4 52 6 41 21 53 19 79 -16 18 -24 25 -28 37
-18 8 6 14 17 14 23 0 6 12 22 25 35 14 13 25 26 25 30 0 5 47 6 104 5 99 -4
104 -3 119 19 8 13 29 37 46 53 17 16 31 36 31 45 0 8 16 29 36 47 31 28 34
29 28 9 -4 -12 -7 -44 -6 -72 l3 -50 -67 -34 c-36 -19 -68 -41 -72 -49 -3 -8
3 -45 13 -81 14 -50 20 -112 23 -259 4 -169 6 -194 21 -202 20 -10 329 -33
342 -24 5 3 17 20 27 38 9 19 29 56 45 84 26 50 36 102 18 102 -4 0 -20 -9
-34 -20 -16 -13 -28 -16 -32 -10 -3 5 -1 10 4 10 6 0 11 17 11 38 0 34 5 42
43 69 43 30 44 30 39 7 -2 -13 0 -24 4 -24 5 0 38 32 74 71 52 56 69 69 84 63
17 -7 16 -10 -14 -34 -18 -15 -30 -31 -27 -37 9 -14 97 8 97 25 0 7 14 27 30
44 33 33 39 21 16 -34 -12 -27 -24 -37 -55 -47 -23 -6 -41 -15 -41 -19 1 -4
15 -16 33 -27 28 -18 32 -27 35 -68 l3 -48 -35 6 c-27 5 -51 -1 -113 -28 -43
-19 -86 -37 -95 -40 -18 -6 -17 -40 3 -94 11 -31 32 -34 208 -31 l154 3 20 35
c27 50 55 77 32 32 -27 -54 1 -85 39 -44 13 15 17 48 22 173 6 184 -1 233 -36
237 -19 2 -37 -9 -70 -43 -24 -25 -51 -45 -59 -45 -10 0 -2 12 19 33 19 18 39
31 44 28 5 -2 7 2 4 10 -3 8 5 18 16 24 28 14 56 72 56 118 0 39 -14 48 -39
25 -11 -11 -13 -10 -7 5 3 10 6 23 6 28 0 4 7 6 15 3 11 -5 15 1 15 18 0 31
-37 163 -56 199 -22 44 -133 169 -149 169 -8 0 -17 -12 -21 -27 -3 -16 -13
-43 -22 -60 -15 -31 -15 -34 4 -60 l21 -27 -86 -49 c-47 -27 -95 -58 -107 -68
-11 -10 -28 -19 -37 -19 -14 0 -13 7 8 52 27 59 45 72 86 64 24 -4 29 -2 29
13 0 10 7 24 15 31 8 7 15 21 15 31 0 10 5 21 10 24 17 11 62 106 56 121 -3 7
-30 30 -60 49 -61 41 -87 41 -111 -3 l-14 -27 5 31 c5 24 0 38 -17 58 -23 27
-161 86 -201 86 -12 0 -48 8 -81 17 -47 13 -66 14 -89 5 -23 -8 -29 -8 -25 1
3 7 -3 13 -12 13 -9 1 -63 6 -120 13 -156 17 -166 16 -208 -22z m202 -137 c-9
-16 -18 -30 -21 -30 -2 0 2 14 11 30 9 17 18 30 21 30 2 0 -2 -13 -11 -30z
m-797 -80 c-12 -16 -23 -30 -24 -30 -7 0 11 46 20 52 24 16 26 7 4 -22z m337
20 c3 -5 -3 -10 -15 -10 -12 0 -18 5 -15 10 3 6 10 10 15 10 5 0 12 -4 15 -10z
m964 -6 c-13 -16 -69 -48 -69 -39 0 4 70 53 79 54 2 1 -2 -6 -10 -15z m-1105
-45 c-4 -6 -56 -35 -117 -65 -63 -30 -116 -62 -122 -74 -11 -20 -11 -21 -33
-2 -18 16 -21 24 -13 45 5 14 14 28 20 32 7 3 8 0 5 -9 -16 -40 86 -20 144 29
15 12 42 26 59 29 18 4 35 12 38 17 4 5 11 9 16 9 6 0 7 -5 3 -11z m756 -49
c-19 -13 -30 -13 -30 0 0 6 10 10 23 10 18 0 19 -2 7 -10z m-1114 -72 c4 -7 3
-8 -5 -4 -6 4 -17 3 -24 -3 -7 -5 -26 -15 -42 -20 l-30 -11 30 25 c32 27 60
32 71 13z m1774 -3 c-7 -8 -17 -15 -22 -15 -6 0 -5 7 2 15 7 8 17 15 22 15 6
0 5 -7 -2 -15z m-471 -69 c0 -6 -11 -38 -25 -71 l-24 -60 4 66 c2 37 6 72 10
78 8 13 36 3 35 -13z m-354 -52 c-26 -20 -55 -36 -55 -30 0 5 63 46 70 46 3
-1 -4 -8 -15 -16z m-255 2 c0 -2 -7 -7 -16 -10 -8 -3 -12 -2 -9 4 6 10 25 14
25 6z m661 -50 c-6 -11 -15 -33 -21 -48 -5 -16 -16 -28 -25 -28 -19 0 -19 10
1 25 9 6 17 25 19 43 1 17 8 39 16 48 13 16 14 16 17 -1 2 -10 -1 -27 -7 -39z
m-961 -1 c0 -5 -5 -3 -10 5 -5 8 -10 20 -10 25 0 6 5 3 10 -5 5 -8 10 -19 10
-25z m771 12 c-10 -9 -11 -8 -5 6 3 10 9 15 12 12 3 -3 0 -11 -7 -18z m-371
-42 c-7 -8 -17 -15 -22 -15 -6 0 -5 7 2 15 7 8 17 15 22 15 6 0 5 -7 -2 -15z
m170 11 c0 -2 -7 -7 -16 -10 -8 -3 -12 -2 -9 4 6 10 25 14 25 6z m845 -78 c-6
-23 -17 -44 -24 -46 -12 -4 -3 27 19 69 17 31 19 22 5 -23z m-105 -14 c0 -8
-15 -30 -32 -48 -18 -18 -45 -47 -59 -65 -15 -17 -33 -31 -40 -31 -7 0 -2 11
13 28 13 15 35 42 47 60 l22 32 -26 0 c-34 0 -23 17 18 29 47 14 57 13 57 -5z
m-509 -67 c-8 -8 -11 -7 -11 4 0 20 13 34 18 19 3 -7 -1 -17 -7 -23z m569 -15
c0 -12 -69 -82 -80 -82 -24 0 -6 31 33 58 49 35 47 34 47 24z m-692 -47 c-6
-13 -15 -22 -20 -19 -5 3 -2 15 8 25 23 25 26 24 12 -6z m-1082 -72 c-6 -7
-65 10 -61 17 3 5 18 3 35 -3 16 -6 28 -12 26 -14z m1118 -115 c-3 -4 -14 -8
-24 -8 -19 0 -19 1 -3 20 12 14 19 16 24 8 4 -7 5 -16 3 -20z m-980 -210 c-17
-29 -77 -98 -85 -98 -5 0 -1 8 9 19 9 10 30 35 45 55 27 34 46 50 31 24z
m1606 -28 c0 -5 -4 -10 -10 -10 -5 0 -10 5 -10 10 0 6 5 10 10 10 6 0 10 -4
10 -10z m-1786 -210 c-15 -28 -29 -48 -31 -46 -5 4 23 63 39 84 22 26 18 10
-8 -38z m746 -65 c0 -2 -10 -10 -22 -16 -21 -11 -22 -11 -9 4 13 16 31 23 31
12z m-811 -56 c-6 -12 -9 -39 -6 -60 4 -29 2 -39 -9 -39 -7 0 -11 6 -8 14 3 8
-2 28 -11 45 -15 29 -15 31 4 31 10 0 21 7 25 15 3 8 8 15 11 15 3 0 1 -10 -6
-21z m1111 -37 c0 -5 -12 -14 -26 -21 -17 -7 -24 -17 -20 -26 3 -8 1 -15 -5
-15 -6 0 -9 12 -7 27 2 19 10 29 28 34 14 4 26 7 28 8 1 1 2 -3 2 -7z m-130
-22 c0 -5 -2 -10 -4 -10 -3 0 -8 5 -11 10 -3 6 -1 10 4 10 6 0 11 -4 11 -10z
m-192 -62 c-3 -7 -20 -18 -39 -25 l-34 -13 30 25 c32 27 49 32 43 13z m386
-80 c-52 -64 -93 -102 -126 -119 -48 -24 -50 -24 -36 7 11 23 13 24 19 7 5
-15 18 -7 79 55 72 71 101 94 64 50z m181 -7 c-3 -5 2 -28 11 -51 13 -33 15
-59 10 -128 -3 -48 -11 -91 -16 -96 -7 -7 -10 -2 -10 13 0 14 -4 20 -12 15 -7
-5 -8 -3 -3 6 4 7 13 38 20 69 9 44 9 64 -1 91 -16 44 -17 90 -3 90 5 0 8 -4
4 -9z m-590 -141 c3 -5 4 -10 1 -10 -2 0 -12 -3 -20 -6 -12 -5 -15 -2 -10 10
7 18 20 21 29 6z m840 -79 c3 -5 1 -12 -5 -16 -5 -3 -10 1 -10 9 0 18 6 21 15
7z m-925 -35 c0 -3 -4 -8 -10 -11 -5 -3 -10 -1 -10 4 0 6 5 11 10 11 6 0 10
-2 10 -4z m911 -68 c-8 -26 -21 -48 -28 -48 -19 0 -17 66 2 74 8 3 15 15 15
26 0 16 3 18 13 9 10 -10 10 -21 -2 -61z m-444 27 c-4 -8 -11 -15 -17 -15 -7
0 -7 6 0 21 13 23 26 19 17 -6z m343 -50 c-12 -30 -6 -41 25 -47 17 -4 16 -7
-10 -17 -16 -7 -43 -19 -59 -27 -16 -8 -34 -14 -39 -14 -6 0 -18 -7 -27 -15
-15 -14 -16 -12 -12 15 4 28 2 30 -29 31 -31 1 -32 2 -9 8 14 4 29 17 35 29
14 32 39 29 31 -4 -6 -24 -5 -26 16 -20 13 3 29 6 36 6 7 0 12 6 11 13 -3 12
33 78 39 73 1 -2 -2 -16 -8 -31z m-670 -15 c0 -5 -10 -10 -22 -10 -19 0 -20 2
-8 10 19 13 30 13 30 0z m-60 -7 c0 -5 -5 -15 -10 -23 -8 -12 -10 -11 -10 8 0
12 5 22 10 22 6 0 10 -3 10 -7z m190 1 c0 -4 -16 -29 -36 -56 -37 -50 -66 -68
-108 -68 -19 0 -23 -6 -23 -26 0 -14 -6 -31 -12 -37 -8 -8 -11 -7 -11 6 0 14
-4 15 -27 6 -34 -13 -45 -1 -37 39 5 25 12 32 30 32 12 0 29 9 36 19 9 12 28
21 53 23 32 2 44 9 60 35 14 23 28 32 48 33 15 0 27 -3 27 -6z m-219 -67 c-10
-9 -11 -8 -5 6 3 10 9 15 12 12 3 -3 0 -11 -7 -18z m889 -57 c-6 -11 -18 -20
-26 -20 -12 0 -10 5 7 20 30 25 32 25 19 0z m-376 -15 c-25 -19 -40 -19 -24 0
7 8 20 15 28 15 13 0 12 -3 -4 -15z m636 -5 c0 -5 -5 -10 -11 -10 -5 0 -7 5
-4 10 3 6 8 10 11 10 2 0 4 -4 4 -10z m122 -14 c20 -14 14 -26 -12 -26 -10 0
-25 -10 -34 -22 l-17 -23 12 24 c10 20 9 27 -5 37 -13 9 -14 13 -4 17 22 9 42
7 60 -7z m-291 -79 c-31 -31 -36 -14 -10 34 24 41 24 42 27 14 2 -18 -4 -35
-17 -48z m-215 11 c-18 -26 -22 -17 -5 14 6 11 13 17 16 15 3 -3 -2 -16 -11
-29z m-34 -100 c-6 -69 -41 -58 -42 12 0 11 38 41 46 36 0 -1 -1 -22 -4 -48z
m218 3 c-13 -11 -29 -17 -34 -14 -11 8 22 33 43 33 11 0 9 -6 -9 -19z m251
-91 c38 0 37 -14 -6 -85 -19 -32 -42 -79 -52 -104 -9 -25 -34 -68 -55 -94 -31
-40 -38 -57 -38 -93 0 -42 11 -56 25 -34 9 15 35 -7 35 -30 0 -10 7 -23 15
-30 19 -16 5 -35 -33 -45 -42 -10 -70 -32 -99 -78 l-27 -42 -7 55 c-5 34 -3
60 3 68 13 15 4 26 -16 19 -8 -3 -17 -21 -19 -39 -4 -30 -5 -31 -12 -10 -10
29 -17 28 -43 -8 -16 -20 -31 -30 -50 -30 -15 0 -33 -4 -41 -9 -11 -7 -7 -13
20 -24 19 -7 40 -21 48 -31 12 -14 8 -14 -32 3 -71 30 -110 35 -145 17 -25
-13 -34 -28 -54 -93 -19 -63 -28 -79 -45 -81 -13 -2 -27 5 -37 19 -14 21 -13
24 14 56 47 53 72 111 68 154 -3 32 -1 38 13 34 8 -3 24 4 34 15 11 12 37 22
67 26 26 4 51 11 54 15 3 5 13 9 22 9 27 0 -6 -27 -52 -43 -48 -17 -65 -39
-47 -61 11 -14 15 -14 28 -1 8 8 22 15 32 15 9 0 26 7 37 15 10 8 29 15 40 15
13 0 33 15 48 35 29 37 49 42 91 23 36 -16 45 0 43 77 -1 55 2 65 34 107 20
26 44 71 53 100 10 29 28 72 41 95 30 52 30 58 -1 88 -13 14 -20 25 -15 25 5
0 13 12 17 28 8 26 8 26 11 -10 3 -35 6 -38 33 -38z m19 40 c0 -5 -7 -10 -16
-10 -8 0 -12 5 -9 10 3 6 10 10 16 10 5 0 9 -4 9 -10z m-925 -49 c-3 -6 -11
-11 -17 -11 -6 0 -6 6 2 15 14 17 26 13 15 -4z m113 -86 c-6 -14 -15 -25 -20
-25 -5 0 -1 11 8 25 9 14 18 25 20 25 2 0 -2 -11 -8 -25z m259 -7 c-3 -8 -6
-5 -6 6 -1 11 2 17 5 13 3 -3 4 -12 1 -19z m133 -45 c-11 -21 -29 -49 -39 -62
-15 -20 -19 -21 -24 -7 -4 10 -1 16 8 16 8 0 15 6 15 14 0 14 46 76 57 76 2 0
-5 -17 -17 -37z m240 -17 c0 -2 -8 -10 -17 -17 -16 -13 -17 -12 -4 4 13 16 21
21 21 13z m249 -78 c-12 -29 -23 -65 -26 -81 -5 -25 -38 -55 -50 -44 -7 8 81
177 93 177 2 0 -6 -24 -17 -52z m-359 -18 c-17 -32 -22 -19 -7 19 7 20 13 27
15 18 2 -9 -2 -26 -8 -37z m-260 -4 c0 -2 -12 -12 -27 -21 l-28 -18 19 21 c17
20 36 29 36 18z m70 -26 c8 -5 10 -10 4 -10 -6 0 -27 -3 -45 -6 l-34 -5 25 15
c30 18 31 18 50 6z m30 -104 c0 -2 -8 -10 -17 -17 -16 -13 -17 -12 -4 4 13 16
21 21 21 13z m-60 -61 c-7 -8 -17 -15 -22 -15 -6 0 -5 7 2 15 7 8 17 15 22 15
6 0 5 -7 -2 -15z m473 -119 c-15 -31 -31 -56 -35 -56 -4 0 6 27 24 60 39 75
49 72 11 -4z m-159 -63 c-11 -14 -30 -30 -43 -35 -21 -7 -22 -6 -11 7 7 8 19
15 26 15 8 0 20 11 26 25 6 14 14 23 16 20 3 -3 -3 -17 -14 -32z m-274 -23 c0
-5 -5 -10 -11 -10 -5 0 -7 5 -4 10 3 6 8 10 11 10 2 0 4 -4 4 -10z m-64 -68
c-18 -16 -18 -16 -6 6 6 13 14 21 18 18 3 -4 -2 -14 -12 -24z m-185 -77 c5 3
16 2 24 -3 14 -7 10 -17 -24 -69 -23 -33 -42 -71 -43 -84 -4 -36 -48 -67 -48
-34 0 8 -5 15 -12 15 -9 0 -9 3 0 12 17 17 15 31 -3 24 -13 -5 -14 -2 -4 15 7
15 8 24 1 28 -6 4 -1 15 13 29 23 22 24 22 30 2 3 -11 12 -20 20 -20 19 0 28
35 21 78 -5 29 -4 33 4 19 6 -9 15 -15 21 -12z m236 3 c-3 -8 -6 -5 -6 6 -1
11 2 17 5 13 3 -3 4 -12 1 -19z m-234 -183 c-3 -9 -8 -14 -10 -11 -3 3 -2 9 2
15 9 16 15 13 8 -4z"/>
<path d="M3820 4610 c0 -5 5 -10 10 -10 6 0 10 5 10 10 0 6 -4 10 -10 10 -5 0
-10 -4 -10 -10z"/>
<path d="M325 4550 c-3 -5 -1 -10 4 -10 6 0 11 5 11 10 0 6 -2 10 -4 10 -3 0
-8 -4 -11 -10z"/>
<path d="M32 4527 c-27 -28 -32 -117 -8 -117 8 0 16 10 18 22 3 20 53 56 63
46 2 -1 -7 -38 -19 -82 -17 -58 -25 -73 -29 -56 -4 17 -9 20 -23 12 -13 -7
-17 -28 -21 -101 -2 -55 0 -91 6 -91 6 0 6 -12 0 -32 -5 -18 -9 -94 -9 -168 0
-108 3 -140 16 -158 12 -18 14 -36 9 -83 -4 -34 -14 -73 -21 -87 -10 -18 -12
-40 -7 -67 3 -22 7 -62 7 -89 1 -36 6 -52 19 -60 15 -9 21 -7 33 8 13 18 14
13 14 -51 0 -58 4 -73 20 -88 31 -28 24 -76 -14 -86 -17 -5 -35 -3 -47 4 -27
17 -40 -1 -32 -46 4 -24 14 -44 28 -53 20 -13 31 -13 98 5 42 11 86 25 98 32
13 7 41 9 69 6 40 -5 51 -2 68 16 34 38 50 80 41 105 -8 20 -13 22 -46 16 -43
-7 -48 -10 -48 -27 0 -17 -15 -18 -52 -5 -31 11 -44 31 -36 56 3 6 11 12 19
12 8 0 14 7 14 15 0 13 4 14 20 5 26 -14 26 2 0 25 -14 13 -24 15 -31 8 -14
-14 -60 7 -57 26 4 20 28 26 28 7 0 -9 5 -16 11 -16 6 0 9 6 6 13 -4 10 2 13
17 10 15 -3 25 1 30 12 8 23 -1 35 -28 35 -12 0 -35 13 -51 30 -21 21 -32 27
-41 19 -8 -7 -14 -7 -19 1 -3 5 -16 10 -27 10 -21 0 -21 0 -2 21 14 16 18 33
16 80 -2 53 0 60 15 57 10 -2 23 -13 29 -26 24 -49 45 -62 97 -62 36 0 54 -5
63 -17 16 -22 17 -33 4 -33 -5 0 -10 7 -10 15 0 19 -4 19 -42 -1 -21 -11 -27
-19 -20 -26 6 -6 8 -17 5 -24 -3 -10 3 -14 18 -14 13 0 50 -12 81 -27 51 -25
60 -33 77 -78 11 -27 22 -60 26 -72 6 -24 42 -40 55 -26 5 4 10 22 13 38 2 18
5 9 6 -25 2 -76 17 -132 37 -147 16 -12 17 -13 1 -13 -28 0 -19 -19 17 -41 19
-11 39 -33 45 -50 12 -34 26 -40 15 -6 -4 14 6 7 30 -23 36 -43 244 -250 252
-250 27 0 -104 210 -156 252 l-25 20 100 -3 c86 -3 100 -2 103 12 2 13 -8 18
-45 23 l-48 6 -1 53 c-1 29 -11 84 -23 122 -12 37 -20 70 -18 72 2 2 20 -4 40
-12 62 -26 73 -16 37 35 l-19 27 24 11 c30 14 31 23 6 46 -17 15 -24 16 -80 3
-34 -8 -72 -24 -85 -36 -26 -24 -56 -28 -56 -6 0 8 4 15 9 15 5 0 11 18 15 40
5 34 2 46 -20 75 -32 42 -51 44 -60 8 -5 -19 -2 -30 11 -39 34 -25 -6 -46 -44
-22 -15 9 -17 17 -10 41 10 34 36 77 47 77 5 0 33 -22 64 -50 53 -47 58 -49
117 -51 52 -2 65 2 86 21 32 30 42 76 21 99 -9 10 -16 30 -16 44 0 31 -2 32
-30 15 -17 -11 -22 -10 -29 1 -7 10 -13 11 -31 1 -36 -19 -32 -6 10 35 46 45
49 61 16 77 -20 9 -24 16 -19 38 7 38 -11 66 -60 92 l-42 23 32 3 c38 4 88
-31 130 -90 15 -23 34 -38 46 -38 18 0 19 5 13 48 -3 27 -14 53 -24 62 -14 12
-16 20 -8 32 7 12 6 24 -4 42 -12 23 -11 28 4 39 28 20 11 54 -42 88 -55 35
-58 35 -65 8 -4 -16 -10 -20 -24 -14 -10 5 -37 10 -60 13 -48 5 -58 20 -44 70
9 29 7 32 -11 32 -14 0 -18 5 -14 16 3 9 6 17 6 20 0 2 6 1 13 -2 16 -6 37 36
37 76 0 15 6 31 13 34 9 5 9 7 0 12 -10 4 -10 11 -2 25 8 17 6 25 -15 46 -14
14 -28 34 -31 45 -9 26 -29 17 -33 -15 -2 -15 -19 -40 -40 -58 -33 -29 -36
-30 -44 -13 -6 14 -7 12 -3 -7 4 -24 2 -27 -20 -25 -30 1 -32 23 -9 68 9 17
14 39 11 49 -4 16 -1 18 21 13 36 -9 43 -14 37 -24 -3 -5 4 -8 15 -7 15 1 20
7 18 21 -5 34 -45 46 -161 46 l-108 0 -14 -34 c-12 -27 -19 -33 -35 -29 -12 3
-27 18 -36 34 -16 33 -56 39 -84 14 -14 -13 -22 -13 -64 0 -66 20 -79 19 -104
-8z m423 -27 c3 -5 -1 -10 -9 -10 -9 0 -16 5 -16 10 0 6 4 10 9 10 6 0 13 -4
16 -10z m-272 -27 c-7 -2 -21 -2 -30 0 -10 3 -4 5 12 5 17 0 24 -2 18 -5z m43
-37 c-19 -30 -20 -44 -3 -79 16 -36 31 -34 23 4 -5 26 -1 35 30 64 l35 33 20
-31 c10 -18 19 -35 19 -39 0 -13 -18 -9 -23 5 -3 9 -7 9 -20 -2 -11 -9 -17
-10 -17 -2 0 6 -4 11 -10 11 -5 0 -10 -16 -10 -36 0 -36 -14 -73 -34 -87 -7
-5 -5 -12 8 -22 11 -8 16 -18 13 -22 -4 -3 -8 -4 -10 -2 -1 2 -17 23 -35 46
-33 43 -41 78 -19 86 9 4 9 8 -2 15 -9 7 -10 12 -2 16 6 4 11 14 11 22 0 14
32 53 39 48 2 -2 -4 -15 -13 -28z m444 -34 c0 -10 -10 -28 -23 -40 l-23 -21 1
27 c0 25 19 51 38 52 4 0 7 -8 7 -18z m-207 -75 c12 -36 13 -52 3 -91 -7 -26
-16 -46 -21 -46 -16 2 -17 -18 -2 -32 11 -9 13 -27 10 -64 -4 -33 -1 -54 6
-58 12 -8 5 -109 -11 -139 -12 -24 -79 -51 -89 -36 -5 8 -8 8 -13 0 -4 -6 -1
-11 6 -11 9 -1 7 -5 -4 -14 -10 -7 -18 -25 -18 -39 0 -14 -5 -29 -11 -32 -18
-11 -24 5 -10 26 27 45 -27 34 -59 -12 -25 -35 -38 -36 -67 -6 l-21 23 33 -4
c29 -3 36 0 49 26 20 39 33 47 52 31 20 -16 33 2 26 37 -3 19 -9 23 -23 19
-13 -4 -19 -1 -19 9 0 9 5 16 10 16 6 0 10 18 10 39 0 25 5 41 15 45 23 8 18
36 -6 36 l-20 0 19 25 c11 14 23 48 27 75 6 43 10 51 33 56 57 14 65 44 11 44
-16 0 -29 5 -29 10 0 6 -7 10 -16 10 -13 0 -14 3 -4 15 7 8 17 12 22 9 5 -3 8
2 6 12 -2 11 -10 22 -18 26 -8 4 6 7 31 7 28 1 51 7 59 16 7 8 14 15 15 15 2
0 10 -20 18 -43z m-253 -102 c10 -12 10 -15 -4 -15 -9 0 -16 7 -16 15 0 8 2
15 4 15 2 0 9 -7 16 -15z m-49 -48 c-5 -5 -20 -6 -32 -2 -23 8 -23 8 -4 15 11
4 21 12 21 19 3 25 6 25 15 2 6 -15 6 -28 0 -34z m349 -82 c0 -14 -4 -25 -10
-25 -11 0 -14 33 -3 43 11 11 13 8 13 -18z m-427 8 c-7 -2 -19 -2 -25 0 -7 3
-2 5 12 5 14 0 19 -2 13 -5z m787 -55 c12 -37 4 -35 -15 2 -9 17 -13 36 -9 42
6 9 9 8 12 -2 2 -8 7 -27 12 -42z m-217 -10 l29 -21 -23 -13 c-32 -18 -49 -17
-49 1 0 23 -15 18 -30 -10 -9 -17 -10 -28 -2 -37 5 -7 12 -26 14 -43 l4 -30
13 30 c16 39 40 65 59 65 13 0 13 -3 -1 -18 -20 -21 -22 -63 -6 -79 9 -9 8
-16 -4 -28 -15 -15 -19 -14 -48 1 -26 13 -33 14 -40 2 -6 -9 -9 -7 -9 10 0 13
4 20 10 17 6 -3 10 -1 10 4 0 16 -16 13 -34 -5 -15 -14 -16 -13 -16 10 0 14 5
28 11 32 12 7 8 73 -6 107 -6 13 -3 16 9 11 10 -4 18 0 22 11 8 20 44 13 87
-17z m-526 0 c-2 -7 -10 -12 -18 -11 -21 4 -41 -64 -22 -72 23 -8 35 -6 27 6
-4 7 -1 10 7 7 8 -3 15 -14 17 -26 2 -15 10 -22 25 -22 19 0 19 -2 -8 -30 -29
-30 -58 -43 -36 -16 17 21 -4 59 -28 51 -21 -6 -46 36 -30 52 10 10 17 32 18
61 1 6 13 12 27 12 16 0 24 -5 21 -12z m105 -88 l-16 -37 -16 31 c-16 30 -16
71 0 46 5 -7 10 -1 14 17 l8 28 12 -24 c11 -20 11 -30 -2 -61z m-25 -102 c-3
-7 -5 -2 -5 12 0 14 2 19 5 13 2 -7 2 -19 0 -25z m557 6 c13 -33 7 -45 -21
-42 -14 2 -28 9 -31 17 -3 10 2 11 18 6 20 -6 22 -4 17 14 -6 24 8 29 17 5z
m-334 -28 c0 -8 6 -16 14 -19 11 -4 12 -14 6 -43 -6 -25 -5 -43 2 -51 8 -10 7
-12 -6 -7 -9 3 -16 12 -16 19 0 7 -10 24 -21 39 -18 23 -20 32 -10 52 12 26
31 32 31 10z m198 -21 c-3 -3 -9 2 -12 12 -6 14 -5 15 5 6 7 -7 10 -15 7 -18z
m-110 3 c7 -7 12 -20 12 -30 0 -10 9 -27 20 -38 26 -26 25 -30 -3 -30 -34 0
-55 29 -55 73 0 39 6 45 26 25z m145 -74 c19 -7 23 -29 7 -39 -5 -3 -10 -18
-10 -33 0 -20 -3 -23 -12 -14 -18 18 -53 15 -72 -7 -10 -11 -25 -17 -37 -14
-10 3 -19 1 -19 -5 0 -6 -12 -12 -27 -14 -18 -2 -27 -8 -25 -17 3 -12 0 -12
-12 -1 -13 10 -19 10 -31 0 -8 -7 -15 -11 -16 -9 -10 51 -12 49 50 49 45 0 62
4 76 20 10 11 24 20 30 20 7 0 18 7 25 15 15 18 35 20 24 3 -4 -7 -3 -8 5 -4
8 6 6 17 -9 41 l-21 33 28 -9 c15 -5 36 -12 46 -15z m-286 -6 c30 -34 37 -49
19 -42 -9 3 -16 1 -16 -5 0 -6 -4 -11 -10 -11 -5 0 -7 6 -4 13 3 8 -6 19 -22
25 -21 10 -24 15 -14 27 17 20 23 19 47 -7z m-111 -29 c4 -8 -1 -9 -16 -4 -20
6 -22 4 -17 -14 3 -11 1 -21 -4 -21 -10 0 -12 33 -2 43 10 11 31 8 39 -4z
m294 -139 c-25 -15 -21 -80 6 -122 13 -21 29 -38 34 -38 6 0 10 -6 10 -14 0
-16 34 -31 50 -21 6 3 10 -4 10 -18 0 -32 -28 -44 -32 -15 -4 27 -25 35 -31
11 -3 -10 -5 -3 -6 15 0 17 -5 31 -10 30 -14 -4 -102 115 -91 122 6 4 9 17 8
30 -2 20 3 25 27 30 35 7 46 3 25 -10z m-104 -57 c21 -28 17 -32 -23 -26 -48
7 -52 11 -29 29 26 18 36 18 52 -3z m-296 -84 c0 -18 -2 -19 -15 -9 -8 7 -15
16 -15 21 0 5 7 9 15 9 9 0 15 -9 15 -21z m-24 -73 c15 -15 20 -56 6 -56 -4 0
-12 16 -18 35 -12 38 -10 42 12 21z"/>
<path d="M206 4320 c8 -31 10 -34 23 -25 16 9 13 25 -3 25 -8 0 -17 6 -20 13
-3 6 -3 1 0 -13z"/>
<path d="M377 4193 c-9 -8 -9 -86 -1 -135 4 -21 18 -50 31 -65 22 -23 26 -24
34 -10 13 22 -16 91 -32 81 -9 -5 -11 11 -6 64 6 57 4 72 -6 72 -8 0 -17 -3
-20 -7z"/>
<path d="M356 4041 c-4 -7 -5 -15 -2 -18 9 -9 19 4 14 18 -4 11 -6 11 -12 0z"/>
<path d="M370 3990 c0 -5 5 -10 11 -10 5 0 7 5 4 10 -3 6 -8 10 -11 10 -2 0
-4 -4 -4 -10z"/>
<path d="M342 3931 c2 -25 9 -46 16 -49 17 -5 16 50 -3 74 -14 18 -15 16 -13
-25z"/>
<path d="M940 4528 c0 -33 37 -88 58 -88 24 0 62 41 62 66 0 32 -20 44 -72 44
-43 0 -48 -2 -48 -22z"/>
<path d="M1174 4537 c-5 -14 24 -116 45 -155 8 -16 5 -32 -15 -76 -14 -31 -23
-63 -20 -71 3 -9 -1 -15 -9 -15 -8 0 -15 -6 -15 -14 0 -18 38 -46 61 -46 24 0
43 26 34 47 -5 10 -8 21 -7 24 1 4 -8 5 -18 2 -15 -4 -20 0 -20 16 0 11 5 21
10 21 6 0 15 11 21 24 7 14 17 22 25 19 9 -3 14 2 14 18 0 12 8 31 17 41 15
17 15 20 -5 38 -20 19 -22 19 -31 3 -17 -31 -25 -4 -12 40 7 23 13 53 14 67 2
23 -2 25 -41 28 -30 2 -44 -1 -48 -11z"/>
<path d="M1355 4541 c-3 -5 0 -13 5 -16 7 -4 9 -19 5 -35 -5 -24 -2 -29 24
-38 16 -6 37 -21 45 -35 21 -31 76 -194 76 -224 0 -14 4 -21 10 -18 6 4 10 -5
10 -19 0 -16 -6 -26 -14 -26 -24 0 -28 -18 -12 -51 9 -18 13 -42 10 -55 -4
-15 -2 -24 5 -24 14 0 51 37 51 51 0 6 9 22 20 36 24 30 27 68 6 60 -8 -3 -17
1 -20 9 -9 23 -7 36 4 29 6 -3 10 5 10 19 0 35 11 38 48 14 26 -16 32 -27 32
-54 0 -22 6 -37 19 -43 10 -6 22 -22 25 -37 6 -21 1 -33 -20 -55 -15 -16 -22
-29 -16 -29 8 0 12 -20 12 -59 0 -43 5 -65 20 -84 l20 -25 -21 -5 c-14 -4 -20
-11 -16 -20 3 -9 -2 -17 -14 -20 -15 -4 -24 5 -42 41 -25 50 -55 72 -99 72
-37 0 -43 -15 -16 -39 12 -12 16 -21 9 -21 -9 0 -11 -20 -6 -82 7 -91 7 -91
-49 -13 l-18 27 -21 -23 c-14 -15 -22 -18 -25 -10 -3 8 -10 5 -19 -9 -15 -21
-14 -24 13 -46 28 -22 24 -30 -13 -25 -16 2 -16 -11 -2 -43 10 -20 9 -28 -5
-41 -9 -9 -16 -26 -16 -38 0 -32 11 -67 19 -63 4 3 31 -18 61 -45 30 -28 56
-45 58 -40 2 6 15 11 29 11 21 0 24 -4 21 -27 -3 -24 1 -28 25 -31 31 -4 34
-14 11 -37 -15 -14 -19 -13 -54 17 -65 56 -92 78 -96 78 -11 0 -2 -46 14 -63
16 -19 16 -20 -5 -8 -27 14 -33 14 -33 1 0 -5 -10 -20 -21 -31 -16 -16 -20
-29 -16 -55 3 -18 3 -35 -1 -37 -4 -2 -2 -3 4 -1 12 3 29 -26 37 -63 3 -15 1
-20 -9 -16 -8 3 -14 14 -14 24 0 10 -4 19 -10 19 -6 0 -10 -65 -10 -176 0
-124 3 -173 11 -168 6 3 9 17 6 30 -5 26 11 32 31 12 9 -9 20 -9 48 1 30 11
38 10 59 -3 27 -17 33 -42 13 -48 -7 -3 -12 -21 -12 -41 0 -44 -3 -46 -18 -9
-11 27 -12 27 -16 4 -2 -13 3 -31 11 -40 22 -27 29 -42 18 -42 -6 0 -23 18
-37 40 -20 30 -30 37 -35 28 -17 -27 -8 -55 30 -92 26 -26 37 -44 34 -57 -9
-31 6 -69 26 -69 21 0 110 91 113 115 0 8 1 21 2 28 1 6 15 24 33 40 17 15 46
59 64 97 18 39 40 72 51 76 10 3 25 15 32 27 15 23 56 178 56 209 0 10 5 18
10 18 6 0 10 -8 10 -19 0 -10 5 -32 11 -50 8 -23 17 -31 34 -31 13 0 27 -4 30
-10 3 -5 24 -10 45 -10 29 0 43 6 54 22 l15 21 21 -24 c14 -16 23 -20 26 -12
4 10 11 9 27 -2 20 -13 26 -11 66 13 87 54 126 97 139 152 14 59 16 462 3 525
-5 22 -9 32 -10 23 -1 -23 -14 -23 -35 0 -15 18 -15 19 10 31 22 9 24 14 14
26 -8 10 -10 31 -6 63 3 26 2 61 -3 77 -6 25 -13 30 -34 27 -14 -1 -28 2 -32
8 -3 5 -20 10 -37 10 -23 0 -29 -4 -24 -15 4 -13 2 -14 -14 -5 -17 9 -18 14
-9 32 7 12 8 38 4 65 l-7 46 35 -22 c72 -44 75 -18 12 80 -86 133 -185 219
-313 273 -34 14 -66 26 -72 26 -29 0 -1 -34 83 -100 128 -102 130 -105 59 -74
-57 25 -65 26 -79 12 -22 -23 -10 -35 45 -42 60 -8 137 -56 146 -91 4 -14 13
-25 21 -25 8 0 15 -7 15 -16 0 -11 -8 -9 -34 11 -28 21 -35 23 -39 10 -4 -8
-13 -12 -22 -9 -12 5 -15 -3 -15 -47 0 -36 -7 -65 -20 -86 -21 -36 -48 -48
-30 -14 5 11 10 30 10 43 0 13 4 28 10 34 6 6 6 21 -2 42 -14 37 -23 40 -31
12 -3 -11 -11 -20 -17 -20 -7 0 -10 7 -6 15 3 9 -1 18 -10 22 -9 3 -20 17 -25
32 l-10 25 -21 -32 c-28 -45 -51 -43 -42 3 3 19 3 35 0 35 -13 0 -46 -66 -46
-93 0 -28 1 -29 40 -22 23 4 40 3 40 -3 0 -20 -38 -42 -73 -42 -33 0 -37 3
-37 26 0 37 -16 61 -49 72 -24 9 -31 19 -39 54 -5 24 -5 50 -1 59 6 11 2 22
-12 35 -17 15 -18 20 -6 29 9 7 11 17 6 30 -6 17 -8 17 -8 3 -1 -10 -4 -18 -8
-18 -18 1 -43 29 -43 47 0 30 -9 34 -46 18 -33 -14 -35 -13 -56 16 -15 20 -29
28 -40 26 -14 -4 -18 1 -18 23 0 46 -84 103 -105 71z m799 -463 c7 -12 6 -24
-4 -42 -14 -28 -18 -30 -37 -18 -9 6 -10 17 -2 46 10 38 25 43 43 14z m-357
-75 c-13 -3 -15 -8 -7 -18 7 -9 7 -27 -1 -64 -6 -29 -8 -62 -5 -74 5 -20 -8
-47 -23 -47 -4 0 -6 13 -3 29 2 17 -3 40 -14 56 -12 18 -14 29 -7 33 7 4 14
21 18 37 11 52 14 55 37 54 18 -1 19 -2 5 -6z m107 -53 c3 -20 2 -30 -2 -22
-7 10 -13 7 -25 -12 -9 -13 -25 -27 -36 -31 -11 -3 -22 -14 -24 -23 -4 -15 -5
-15 -6 1 0 10 6 20 14 23 16 6 21 34 6 34 -11 0 -2 48 11 56 16 10 23 -6 8
-17 -11 -7 -9 -8 10 -5 20 3 24 9 22 27 -4 36 14 10 22 -31z m206 21 c0 -5 -7
-14 -15 -21 -18 -15 -42 1 -31 19 8 13 46 15 46 2z m-89 -101 c18 0 69 -51 69
-68 0 -16 37 -15 43 1 3 6 6 2 6 -11 1 -13 6 -32 11 -43 7 -13 7 -19 0 -19 -5
0 -10 -13 -10 -29 0 -25 -3 -28 -27 -23 -27 5 -27 4 -12 -14 9 -10 14 -25 12
-32 -3 -8 -12 -3 -26 14 -16 20 -18 30 -10 44 7 10 8 22 2 31 -5 8 -9 24 -9
37 0 13 -6 22 -15 22 -8 0 -24 13 -36 29 -12 16 -31 32 -42 35 -17 4 -18 7 -7
21 11 14 10 17 -8 21 -12 4 -20 13 -19 25 1 16 5 15 32 -11 17 -17 38 -30 46
-30z m206 53 c-4 -3 -2 -12 5 -20 6 -7 8 -16 4 -20 -8 -8 -36 29 -30 39 3 5
10 8 16 8 6 0 8 -3 5 -7z m-67 -65 c0 -23 -16 -16 -23 11 -3 14 -1 18 9 14 8
-3 14 -14 14 -25z m177 10 c-3 -8 -6 -5 -6 6 -1 11 2 17 5 13 3 -3 4 -12 1
-19z m-110 -55 c-3 -10 -5 -4 -5 12 0 17 2 24 5 18 2 -7 2 -21 0 -30z m-296
-44 c9 -17 13 -19 20 -8 7 11 9 11 9 -3 0 -26 -18 -31 -30 -8 -6 12 -21 25
-33 30 l-22 9 22 0 c13 1 27 -8 34 -20z m-50 -46 c5 -14 8 -33 7 -42 -2 -9 3
-15 10 -13 8 1 11 -2 7 -8 -11 -17 -30 -11 -58 18 -31 32 -35 52 -11 52 13 0
14 3 5 14 -10 12 -8 13 9 9 12 -3 26 -17 31 -30z m119 -13 c0 -5 -5 -10 -11
-10 -5 0 -7 5 -4 10 3 6 8 10 11 10 2 0 4 -4 4 -10z m-314 -68 c-2 -1 -17 1
-35 4 -24 5 -29 9 -20 20 6 7 16 12 22 10 7 -1 8 -1 4 2 -4 2 -2 11 5 19 11
14 14 11 20 -18 3 -19 5 -35 4 -37z m-86 48 c0 -5 -4 -10 -10 -10 -5 0 -10 5
-10 10 0 6 5 10 10 10 6 0 10 -4 10 -10z m630 -11 c-7 -11 -14 -18 -17 -15 -3
3 0 12 7 21 18 21 23 19 10 -6z m-433 -53 c-9 -24 -24 -19 -23 7 1 12 -4 21
-11 20 -8 -2 -13 7 -13 19 0 22 0 22 26 -4 17 -16 24 -32 21 -42z m228 7 c-3
-11 -9 -13 -15 -7 -7 7 -6 20 2 37 12 24 13 25 16 6 2 -11 1 -28 -3 -36z
m-520 17 c-10 -11 -22 -17 -27 -14 -5 3 -1 12 9 20 27 20 39 17 18 -6z m375
-110 c0 -10 8 -24 19 -29 10 -6 26 -22 35 -35 15 -24 15 -27 -13 -73 -27 -44
-29 -54 -27 -128 2 -44 1 -55 -1 -25 -2 30 -10 60 -17 65 -7 6 -15 17 -18 25
-5 12 -7 11 -13 -4 -6 -13 -3 -23 7 -30 19 -14 7 -55 -17 -57 -8 -1 -19 -3
-25 -4 -5 -1 -13 -3 -17 -4 -5 -1 -1 -6 7 -11 13 -9 13 -10 0 -10 -8 0 -22 4
-29 9 -9 6 -22 6 -33 0 -10 -5 -18 -8 -18 -5 0 2 -3 11 -6 20 -4 10 -1 16 9
16 15 0 16 50 2 98 -9 26 10 30 35 7 26 -23 80 -2 80 32 0 14 9 36 20 50 21
26 26 53 12 53 -13 0 -32 47 -32 76 0 13 -7 27 -15 30 -8 4 -15 11 -15 18 1
20 70 -63 70 -84z m-330 65 c20 -24 6 -28 -15 -5 -10 11 -13 20 -8 20 6 0 16
-7 23 -15z m356 0 c11 -27 -2 -37 -14 -11 -7 16 -8 26 -1 26 5 0 12 -7 15 -15z
m-271 -9 c12 -8 16 -19 12 -30 -6 -16 -1 -17 48 -14 30 1 55 0 55 -4 0 -14 21
-9 38 9 16 15 17 14 24 -26 4 -22 10 -47 14 -53 5 -8 2 -9 -9 -5 -10 4 -20 0
-26 -11 -8 -13 -9 -10 -6 14 3 28 1 31 -17 26 -13 -3 -24 1 -30 12 -10 17 -38
22 -38 6 0 -5 -6 -10 -13 -10 -9 0 -13 -10 -12 -27 1 -16 0 -20 -2 -10 -5 18
-23 24 -23 7 0 -5 -4 -10 -10 -10 -5 0 -10 11 -10 25 0 25 -24 44 -38 30 -4
-4 -1 -10 6 -12 16 -6 15 -21 -2 -38 -12 -12 -16 -12 -26 0 -7 8 -21 15 -31
15 -21 0 -34 16 -19 25 5 3 10 11 10 17 0 6 -12 -1 -27 -16 -15 -15 -35 -26
-46 -24 -23 3 -57 48 -37 48 6 0 14 -9 17 -20 3 -11 12 -20 19 -20 10 0 13 7
8 24 -5 20 -1 24 35 33 26 7 43 7 49 1 14 -14 31 -2 42 28 11 28 19 29 45 10z
m355 4 c13 -9 13 -10 0 -10 -8 0 -22 5 -30 10 -13 9 -13 10 0 10 8 0 22 -5 30
-10z m190 -5 c0 -9 -9 -15 -22 -15 -21 0 -21 0 -2 15 24 18 24 18 24 0z m-100
-143 c0 -13 -12 -22 -22 -16 -10 6 -1 24 13 24 5 0 9 -4 9 -8z m-440 -72 c7
-13 7 -20 1 -20 -6 0 -15 9 -21 20 -7 13 -7 20 -1 20 6 0 15 -9 21 -20z m465
-30 c3 -5 -1 -10 -9 -10 -9 0 -16 -5 -16 -12 0 -6 -3 -9 -6 -5 -9 8 3 37 15
37 5 0 13 -4 16 -10z m285 -20 c0 -5 -4 -10 -10 -10 -5 0 -10 5 -10 10 0 6 5
10 10 10 6 0 10 -4 10 -10z m-717 -92 c12 -9 18 -20 14 -24 -11 -11 -51 47
-50 73 2 39 6 40 10 3 3 -21 13 -42 26 -52z m377 -2 c0 -5 -7 -3 -15 4 -8 6
-19 9 -25 5 -11 -7 -14 27 -3 39 7 7 42 -32 43 -48z m-443 -54 c-23 -26 -30
-61 -16 -78 10 -12 9 -13 -5 -8 -26 10 -14 97 17 116 18 11 21 -11 4 -30z
m207 -17 c-8 -13 -12 -30 -8 -36 4 -8 3 -9 -4 -5 -7 4 -12 20 -12 37 0 22 5
29 20 29 19 0 20 -1 4 -25z m-329 5 c3 -5 -3 -10 -15 -10 -12 0 -18 5 -15 10
3 6 10 10 15 10 5 0 12 -4 15 -10z m275 0 c0 -5 -2 -10 -4 -10 -3 0 -8 5 -11
10 -3 6 -1 10 4 10 6 0 11 -4 11 -10z m310 -38 c0 -1 -9 2 -20 8 -11 6 -20 15
-20 20 0 6 9 2 20 -7 11 -10 20 -19 20 -21z m-300 -62 c-6 -12 -9 -25 -5 -28
6 -7 29 18 39 42 3 7 8 6 15 -4 7 -10 6 -19 -6 -32 -20 -22 -63 -24 -63 -3 0
25 -1 29 -11 42 -6 6 -14 26 -19 44 l-10 34 36 -36 c32 -32 35 -39 24 -59z
m-230 -42 c0 -21 -5 -38 -11 -38 -6 0 0 -15 13 -32 l23 -33 -32 25 c-35 28
-40 42 -19 59 10 8 13 24 9 49 -3 28 -2 33 6 22 6 -8 11 -32 11 -52z m106 10
c17 -19 17 -21 2 -15 -14 5 -18 1 -18 -18 0 -23 -2 -24 -20 -13 -11 7 -16 14
-10 16 5 2 10 15 10 28 0 30 11 31 36 2z m59 -78 c0 -8 5 -19 10 -23 6 -5 1
-7 -11 -4 -12 2 -28 0 -37 -5 -14 -7 -15 -5 -5 22 11 32 43 39 43 10z"/>
<path d="M1910 3445 c0 -8 5 -15 10 -15 6 0 10 7 10 15 0 8 -4 15 -10 15 -5 0
-10 -7 -10 -15z"/>
<path d="M1760 3313 c0 -13 5 -23 10 -23 13 0 13 11 0 30 -8 12 -10 11 -10 -7z"/>
<path d="M1820 3290 c0 -5 5 -10 10 -10 6 0 10 5 10 10 0 6 -4 10 -10 10 -5 0
-10 -4 -10 -10z"/>
<path d="M1750 3270 c0 -5 5 -10 11 -10 5 0 7 5 4 10 -3 6 -8 10 -11 10 -2 0
-4 -4 -4 -10z"/>
<path d="M1616 3567 c3 -10 9 -15 12 -12 3 3 0 11 -7 18 -10 9 -11 8 -5 -6z"/>
<path d="M1470 3530 c0 -5 5 -10 10 -10 6 0 10 5 10 10 0 6 -4 10 -10 10 -5 0
-10 -4 -10 -10z"/>
<path d="M1800 3059 c0 -5 5 -7 10 -4 6 3 10 8 10 11 0 2 -4 4 -10 4 -5 0 -10
-5 -10 -11z"/>
<path d="M798 4534 c-5 -4 -8 -23 -8 -43 0 -25 3 -32 11 -24 6 6 9 25 7 43 -2
17 -6 28 -10 24z"/>
<path d="M1290 4455 c0 -16 6 -25 15 -25 16 0 19 9 9 34 -9 25 -24 19 -24 -9z"/>
<path d="M1674 4463 c-3 -10 -10 -26 -15 -35 -11 -22 -12 -48 0 -48 5 0 19 8
31 18 18 15 21 24 15 50 -7 35 -23 42 -31 15z"/>
<path d="M1133 4453 c-3 -10 -17 -27 -30 -38 -19 -16 -22 -26 -17 -52 6 -30 8
-31 42 -26 34 6 35 5 30 -21 -4 -21 -2 -26 11 -24 10 2 19 19 25 45 15 71 -40
175 -61 116z"/>
<path d="M1600 4460 c0 -5 5 -10 11 -10 5 0 7 5 4 10 -3 6 -8 10 -11 10 -2 0
-4 -4 -4 -10z"/>
<path d="M1765 4410 c4 -6 11 -8 16 -5 14 9 11 15 -7 15 -8 0 -12 -5 -9 -10z"/>
<path d="M1400 4389 c0 -5 5 -7 10 -4 6 3 10 8 10 11 0 2 -4 4 -10 4 -5 0 -10
-5 -10 -11z"/>
<path d="M1790 4365 c-11 -13 -10 -14 4 -9 9 3 16 10 16 15 0 13 -6 11 -20 -6z"/>
<path d="M1700 4360 c0 -5 5 -10 10 -10 6 0 10 5 10 10 0 6 -4 10 -10 10 -5 0
-10 -4 -10 -10z"/>
<path d="M1310 4350 c0 -5 5 -10 10 -10 6 0 10 5 10 10 0 6 -4 10 -10 10 -5 0
-10 -4 -10 -10z"/>
<path d="M1020 4324 c0 -31 23 -28 28 4 2 15 -2 22 -12 22 -11 0 -16 -9 -16
-26z"/>
<path d="M1442 4330 c0 -14 2 -19 5 -12 2 6 2 18 0 25 -3 6 -5 1 -5 -13z"/>
<path d="M1310 4311 c0 -5 5 -13 10 -16 6 -3 10 -2 10 4 0 5 -4 13 -10 16 -5
3 -10 2 -10 -4z"/>
<path d="M730 4285 c0 -9 5 -15 11 -13 6 2 11 8 11 13 0 5 -5 11 -11 13 -6 2
-11 -4 -11 -13z"/>
<path d="M1450 4253 c0 -33 -3 -43 -9 -34 -7 12 -13 12 -24 3 -7 -7 -17 -9
-20 -5 -4 3 -14 0 -23 -8 -14 -11 -18 -11 -29 4 -16 22 -32 22 -43 0 -13 -25
0 -54 42 -91 44 -38 45 -49 6 -49 -32 0 -80 -36 -80 -60 0 -7 -9 -13 -19 -13
-25 0 -46 -62 -42 -122 1 -19 50 -33 82 -23 18 6 19 8 5 24 -9 10 -12 22 -7
30 14 21 35 -26 35 -78 1 -26 6 -46 14 -48 7 -3 12 4 12 15 0 10 9 27 20 37
30 27 33 50 10 94 -22 45 -26 66 -8 55 7 -5 9 -1 6 13 -4 16 -1 19 18 15 16
-3 24 0 24 9 0 8 9 25 20 39 11 14 20 36 20 49 0 14 5 50 12 81 11 57 6 110
-12 110 -6 0 -10 -21 -10 -47z"/>
<path d="M780 4280 c0 -5 6 -10 14 -10 9 0 12 -8 8 -25 -2 -15 0 -25 7 -25 6
0 11 5 11 10 0 6 12 8 28 5 15 -3 22 -3 15 1 -7 3 -10 11 -7 19 6 15 -25 35
-55 35 -12 0 -21 -4 -21 -10z"/>
<path d="M1827 4283 c-12 -11 -8 -23 7 -23 8 0 16 7 20 15 5 15 -14 21 -27 8z"/>
<path d="M1740 4271 c0 -13 26 -32 33 -24 8 7 -11 33 -24 33 -5 0 -9 -4 -9 -9z"/>
<path d="M880 4256 c0 -9 5 -16 10 -16 6 0 10 4 10 9 0 6 -4 13 -10 16 -5 3
-10 -1 -10 -9z"/>
<path d="M1350 4260 c0 -5 5 -10 10 -10 6 0 10 5 10 10 0 6 -4 10 -10 10 -5 0
-10 -4 -10 -10z"/>
<path d="M1720 4239 c0 -5 5 -7 10 -4 6 3 10 8 10 11 0 2 -4 4 -10 4 -5 0 -10
-5 -10 -11z"/>
<path d="M736 4208 c-9 -17 -15 -32 -14 -33 2 -2 18 -6 36 -10 28 -6 32 -4 32
15 0 25 -17 60 -30 60 -5 0 -16 -14 -24 -32z"/>
<path d="M1980 4226 c0 -9 5 -16 10 -16 6 0 10 4 10 9 0 6 -4 13 -10 16 -5 3
-10 -1 -10 -9z"/>
<path d="M1810 4194 c0 -8 5 -12 10 -9 6 3 10 10 10 16 0 5 -4 9 -10 9 -5 0
-10 -7 -10 -16z"/>
<path d="M810 4191 c0 -6 5 -13 10 -16 6 -3 10 1 10 9 0 9 -4 16 -10 16 -5 0
-10 -4 -10 -9z"/>
<path d="M996 4184 c-9 -23 -7 -62 3 -68 11 -7 21 17 21 49 0 29 -16 41 -24
19z"/>
<path d="M1635 4190 c3 -5 8 -10 11 -10 2 0 4 5 4 10 0 6 -5 10 -11 10 -5 0
-7 -4 -4 -10z"/>
<path d="M1760 4161 c0 -5 7 -12 16 -15 14 -5 15 -4 4 9 -14 17 -20 19 -20 6z"/>
<path d="M4620 4150 c0 -5 5 -10 10 -10 6 0 10 5 10 10 0 6 -4 10 -10 10 -5 0
-10 -4 -10 -10z"/>
<path d="M1240 4115 c0 -5 5 -17 10 -25 5 -8 10 -10 10 -5 0 6 -5 17 -10 25
-5 8 -10 11 -10 5z"/>
<path d="M2230 4060 c0 -5 5 -10 10 -10 6 0 10 5 10 10 0 6 -4 10 -10 10 -5 0
-10 -4 -10 -10z"/>
<path d="M1180 4041 c0 -6 5 -13 10 -16 6 -3 10 1 10 9 0 9 -4 16 -10 16 -5 0
-10 -4 -10 -9z"/>
<path d="M1135 3994 c-16 -12 -18 -18 -7 -34 7 -11 9 -32 5 -51 -5 -28 -4 -31
11 -26 10 4 20 7 22 7 10 0 2 58 -11 77 -11 16 -12 22 -2 26 6 2 10 7 7 10 -3
3 -14 -1 -25 -9z"/>
<path d="M1485 3970 c3 -5 11 -10 16 -10 6 0 7 5 4 10 -3 6 -11 10 -16 10 -6
0 -7 -4 -4 -10z"/>
<path d="M1605 3970 c3 -5 8 -10 11 -10 2 0 4 5 4 10 0 6 -5 10 -11 10 -5 0
-7 -4 -4 -10z"/>
<path d="M1415 3960 c-11 -18 15 -50 40 -50 30 0 31 7 6 38 -21 24 -36 28 -46
12z"/>
<path d="M1635 3940 c-3 -5 -1 -10 4 -10 6 0 11 5 11 10 0 6 -2 10 -4 10 -3 0
-8 -4 -11 -10z"/>
<path d="M1650 3870 c0 -5 5 -10 10 -10 6 0 10 5 10 10 0 6 -4 10 -10 10 -5 0
-10 -4 -10 -10z"/>
<path d="M5047 3853 c-13 -13 -7 -32 8 -27 8 4 15 12 15 20 0 15 -12 19 -23 7z"/>
<path d="M2370 3830 c0 -11 5 -20 10 -20 6 0 10 9 10 20 0 11 -4 20 -10 20 -5
0 -10 -9 -10 -20z"/>
<path d="M1436 3805 c8 -19 43 -30 56 -17 16 16 0 32 -32 32 -22 0 -28 -4 -24
-15z"/>
<path d="M4650 3590 c0 -5 4 -10 9 -10 6 0 13 5 16 10 3 6 -1 10 -9 10 -9 0
-16 -4 -16 -10z"/>
<path d="M920 3479 c0 -5 5 -7 10 -4 6 3 10 8 10 11 0 2 -4 4 -10 4 -5 0 -10
-5 -10 -11z"/>
<path d="M321 3464 c0 -11 3 -14 6 -6 3 7 2 16 -1 19 -3 4 -6 -2 -5 -13z"/>
<path d="M740 3451 c0 -6 5 -13 10 -16 6 -3 10 1 10 9 0 9 -4 16 -10 16 -5 0
-10 -4 -10 -9z"/>
<path d="M386 3422 c-3 -5 8 -22 24 -37 34 -32 37 -28 15 15 -16 30 -29 37
-39 22z"/>
<path d="M1380 3336 c0 -8 5 -18 10 -21 6 -3 10 1 10 9 0 8 -4 18 -10 21 -5 3
-10 -1 -10 -9z"/>
<path d="M950 3320 c0 -5 7 -10 16 -10 8 0 12 5 9 10 -3 6 -10 10 -16 10 -5 0
-9 -4 -9 -10z"/>
<path d="M10 3300 c0 -5 5 -10 10 -10 6 0 10 5 10 10 0 6 -4 10 -10 10 -5 0
-10 -4 -10 -10z"/>
<path d="M970 3280 c0 -5 5 -10 10 -10 6 0 10 5 10 10 0 6 -4 10 -10 10 -5 0
-10 -4 -10 -10z"/>
<path d="M5 3270 c3 -5 8 -10 11 -10 2 0 4 5 4 10 0 6 -5 10 -11 10 -5 0 -7
-4 -4 -10z"/>
<path d="M873 3254 c-8 -21 23 -52 37 -38 6 6 8 18 5 27 -9 22 -35 29 -42 11z"/>
<path d="M965 3200 c3 -5 8 -10 11 -10 2 0 4 5 4 10 0 6 -5 10 -11 10 -5 0 -7
-4 -4 -10z"/>
<path d="M450 3166 c0 -2 7 -9 15 -16 12 -10 15 -10 15 4 0 9 -7 16 -15 16 -8
0 -15 -2 -15 -4z"/>
<path d="M886 3155 c4 -8 11 -15 16 -15 6 0 5 6 -2 15 -7 8 -14 15 -16 15 -2
0 -1 -7 2 -15z"/>
<path d="M2361 3109 c-12 -12 -20 -28 -17 -35 3 -9 -2 -17 -12 -20 -16 -5 -62
-25 -71 -31 -2 -1 13 -24 33 -51 19 -27 42 -74 50 -106 19 -72 24 -80 42 -65
11 9 14 46 14 170 0 88 -4 159 -8 159 -5 0 -18 -9 -31 -21z"/>
<path d="M255 3025 c-22 -8 -51 -27 -65 -43 -30 -35 -66 -56 -81 -46 -14 8
-59 -35 -59 -56 0 -29 32 -110 41 -104 5 3 9 25 9 49 0 24 5 47 10 50 12 8 13
-72 0 -135 -6 -33 -4 -54 6 -79 18 -43 19 -41 -14 -41 -32 0 -52 16 -52 41 0
9 -9 27 -20 40 l-19 24 -1 -113 c0 -91 3 -114 15 -118 20 -8 19 -33 -1 -41
-12 -4 -14 -19 -12 -64 3 -56 5 -62 51 -107 68 -66 97 -126 53 -109 -8 3 -17
19 -21 35 -9 42 -32 48 -63 17 -22 -22 -24 -29 -15 -58 6 -21 15 -31 25 -29
20 3 32 -48 12 -54 -8 -2 -21 -6 -29 -9 -13 -4 -15 -60 -15 -425 l0 -420 58
-36 c61 -39 142 -112 142 -128 0 -6 -27 16 -59 48 -32 32 -63 56 -69 52 -5 -3
-17 3 -27 14 -10 11 -24 20 -32 20 -12 0 -14 -24 -11 -130 2 -72 -1 -130 -5
-130 -5 0 -1 -7 7 -16 19 -18 21 -34 5 -34 -16 0 -6 -144 11 -165 10 -12 10
-15 -4 -15 -21 0 -22 -68 -2 -95 18 -25 107 -33 350 -34 l179 -1 -6 36 c-7 40
-72 146 -113 185 -14 13 -35 42 -46 63 -11 21 -40 61 -65 88 -26 26 -44 50
-42 52 8 8 113 -64 156 -106 32 -32 41 -47 37 -64 -10 -41 57 -144 108 -165
22 -9 35 -9 47 -2 22 14 51 -2 51 -27 0 -17 7 -20 43 -21 36 0 39 -2 19 -10
-13 -5 -20 -13 -17 -19 9 -15 152 -12 183 4 24 12 30 12 47 0 10 -8 28 -14 39
-14 20 1 20 2 -3 21 -34 28 -18 36 19 9 42 -30 119 -39 135 -16 11 14 14 15
25 1 14 -17 74 -19 133 -6 21 5 37 5 37 0 0 -5 35 -9 78 -9 88 0 119 14 110
48 -5 19 -2 18 32 -9 30 -24 45 -30 76 -27 36 3 39 6 42 36 2 18 -2 40 -9 48
-7 9 -13 24 -14 34 -2 28 41 6 91 -47 40 -41 44 -43 100 -43 68 0 155 35 174
69 9 17 14 19 29 9 24 -14 55 6 48 32 -3 13 2 15 26 12 26 -4 38 4 97 66 82
85 90 104 61 143 -31 42 -26 54 27 70 47 15 47 15 53 66 4 28 10 56 14 63 17
28 27 674 12 758 -5 29 -4 41 3 37 6 -4 10 23 10 77 0 83 0 85 -35 118 -21 20
-35 44 -35 58 0 24 1 24 25 8 13 -9 29 -16 34 -16 5 0 10 48 10 109 1 103 0
111 -24 139 -25 30 -35 56 -13 34 22 -22 38 -13 38 21 0 53 -11 77 -41 93
l-29 14 6 -32 5 -33 -18 24 c-10 13 -23 38 -29 55 -6 17 -15 30 -20 28 -14 -3
-9 -48 15 -132 18 -66 19 -77 6 -90 -13 -13 -15 -12 -15 7 0 12 -5 25 -10 28
-7 4 -8 11 -2 18 11 14 4 77 -8 77 -5 0 -17 -12 -28 -27 -11 -15 -24 -23 -30
-19 -8 5 -6 15 8 34 10 15 21 45 23 67 2 22 8 49 14 60 6 11 8 25 6 32 -6 17
38 4 64 -19 18 -17 25 -18 45 -7 29 15 38 28 38 55 0 20 -17 34 -41 34 -5 0
-9 -14 -9 -32 0 -28 -2 -30 -13 -18 -17 19 -41 130 -42 190 0 33 -4 45 -15 45
-8 0 -19 6 -23 13 -11 17 -34 15 -45 -4 -8 -14 -10 -14 -21 0 -25 30 -39 19
-35 -26 l5 -43 -16 28 c-18 30 -33 35 -42 11 -5 -13 -11 -10 -34 12 -16 15
-29 34 -29 41 0 26 -39 11 -103 -40 -40 -32 -46 -47 -22 -47 13 0 14 -4 4 -21
-6 -13 -9 -44 -6 -78 3 -31 3 -48 1 -38 -3 9 -9 15 -14 12 -4 -2 -10 8 -13 24
-7 33 -36 47 -64 32 -10 -5 -30 -36 -45 -68 -14 -32 -43 -96 -64 -143 -63
-141 -58 -256 14 -330 19 -19 47 -62 63 -95 26 -55 27 -64 16 -102 -9 -34 -16
-43 -33 -43 -43 0 -65 -70 -33 -108 23 -29 39 -21 39 19 0 27 3 29 36 29 20 0
33 -4 29 -10 -3 -5 1 -23 10 -39 20 -39 19 -85 -2 -133 -16 -33 -21 -37 -43
-32 -33 7 -31 4 -82 119 -64 141 -67 156 -63 285 2 63 0 119 -5 125 -5 5 -10
26 -12 45 -5 58 -30 44 -44 -25 -11 -53 -10 -70 8 -147 25 -108 19 -138 -18
-85 -23 35 -44 48 -44 28 0 -5 14 -51 31 -103 27 -77 32 -108 31 -178 -1 -117
-5 -154 -17 -163 -6 -5 -4 -7 5 -6 40 4 42 0 38 -66 l-3 -64 55 -56 c60 -61
75 -68 66 -30 -4 14 -3 25 1 25 5 0 8 26 8 58 0 31 4 73 8 92 l7 35 60 -3 c33
-2 60 -6 60 -8 0 -3 -10 -24 -22 -47 -13 -27 -23 -68 -26 -114 -3 -44 -10 -77
-18 -84 -11 -9 -14 -6 -14 20 0 39 -18 40 -31 2 -6 -16 -17 -32 -25 -35 -23
-9 -16 -41 21 -96 19 -29 35 -56 35 -61 0 -5 11 -27 25 -49 14 -22 25 -47 25
-55 0 -9 7 -18 15 -21 17 -7 20 -40 5 -49 -6 -3 -10 -15 -10 -26 0 -11 -7 -19
-16 -19 -9 0 -14 -6 -11 -12 2 -7 14 -12 26 -11 17 2 21 -3 21 -27 0 -30 0
-30 58 -30 l58 0 11 -72 c13 -80 8 -90 -37 -81 -17 3 -31 -1 -39 -11 -11 -14
-17 -11 -47 25 -36 43 -41 58 -23 76 8 8 5 22 -10 52 -22 43 -41 54 -41 24 0
-12 -6 -8 -19 13 -11 18 -24 35 -30 38 -6 4 -11 24 -11 45 0 55 -40 82 -70 46
-7 -8 -17 -12 -24 -8 -6 3 -7 2 -3 -2 4 -5 -3 -15 -15 -22 l-23 -12 23 -1 c27
0 28 -19 2 -53 l-20 -25 50 -7 c33 -5 50 -12 50 -21 0 -8 4 -14 9 -14 13 0 20
-51 10 -64 -6 -6 -15 -19 -22 -29 -11 -17 -15 -16 -77 4 -36 12 -72 30 -80 40
-10 12 -20 16 -29 10 -7 -5 -22 -6 -32 -4 -17 5 -17 7 -3 29 21 31 32 178 14
189 -10 6 -12 0 -8 -24 2 -17 2 -31 -1 -31 -3 1 -24 39 -45 85 -22 48 -54 98
-72 115 -32 29 -40 46 -46 100 -2 14 -7 23 -13 20 -5 -3 -9 -11 -7 -17 2 -8
-7 -13 -20 -13 -31 -1 -124 -53 -120 -68 4 -21 -28 -25 -48 -7 -16 15 -24 15
-55 5 -37 -12 -37 -13 -31 -54 l7 -41 -35 34 c-27 26 -33 38 -25 47 13 16 -3
71 -31 107 l-19 23 28 -4 c39 -5 51 16 51 89 0 35 -1 77 -1 92 0 16 -5 27 -12
26 -7 -1 -20 1 -30 6 -14 6 -16 10 -6 16 10 6 10 13 1 34 -16 35 -15 53 2 30
8 -11 19 -16 30 -12 15 6 17 29 14 244 -3 203 -6 243 -20 272 -22 42 -22 40 1
34 10 -2 20 1 23 9 2 7 2 72 -1 143 -4 72 -3 132 2 133 14 7 7 24 -8 18 -11
-4 -15 2 -15 21 0 25 -1 25 -18 10 -27 -25 -45 -21 -64 13 -19 33 -6 41 24 14
16 -16 18 -15 24 2 3 11 10 27 15 37 14 27 1 40 -34 33 -54 -11 -99 -71 -67
-91 6 -3 10 -15 10 -27 0 -11 9 -31 20 -45 33 -43 22 -50 -15 -10 -19 20 -35
46 -35 56 0 26 -15 34 -30 16 -18 -22 -30 -9 -30 35 0 47 -11 56 -45 34 -21
-14 -24 -14 -20 -2 7 17 -23 39 -77 57 -26 9 -40 21 -49 44 -6 18 -11 37 -10
43 0 6 -10 21 -24 34 -14 13 -25 29 -25 37 0 19 -18 16 -30 -6 -17 -32 -12
-56 19 -85 41 -39 104 -133 99 -148 -6 -17 -98 77 -98 100 0 20 -49 72 -68 72
-17 0 -15 -10 6 -33 16 -19 16 -19 -3 -16 -18 4 -21 15 -27 103 -4 54 -9 100
-11 103 -3 2 -16 -2 -31 -8 -19 -9 -26 -20 -26 -41 0 -15 -4 -28 -10 -28 -6 0
-10 -30 -10 -71 0 -48 -3 -68 -11 -63 -7 4 -9 22 -4 50 6 41 3 50 -34 105 -42
63 -50 89 -28 89 8 0 7 4 -3 10 -13 9 -12 12 4 25 23 17 42 19 51 6 7 -13 62
-12 101 1 25 9 36 8 53 -4 14 -10 18 -18 12 -23 -17 -10 -13 -55 4 -55 8 0 15
9 15 21 0 11 4 17 10 14 14 -8 40 13 40 32 0 7 -20 22 -44 33 -24 10 -47 23
-50 29 -10 16 -193 13 -241 -4z m1825 -161 c0 -8 -7 -14 -15 -14 -8 0 -15 9
-15 20 0 13 5 18 15 14 8 -4 15 -12 15 -20z m-1821 -89 c18 -36 51 -85 73
-108 67 -70 78 -88 78 -125 0 -77 60 -100 166 -62 59 20 62 4 3 -21 l-31 -12
24 -13 c12 -7 28 -13 35 -14 7 0 23 -11 37 -25 30 -30 46 -32 46 -6 0 13 8 21
23 23 17 2 23 11 25 36 3 28 6 31 18 21 8 -6 14 -16 14 -22 0 -13 60 -77 72
-77 5 0 24 -6 43 -14 l34 -14 -20 -38 c-24 -48 -40 -64 -46 -46 -11 28 -23 9
-23 -37 0 -33 6 -56 20 -74 22 -28 25 -37 11 -37 -5 0 -20 14 -32 31 -16 23
-23 48 -24 96 -2 60 -5 67 -41 104 -21 21 -42 39 -46 39 -13 0 -9 -28 7 -44
13 -13 13 -15 -7 -22 -16 -5 -26 -1 -40 17 -43 56 -61 74 -65 62 -3 -8 -16 -6
-46 8 -48 21 -73 24 -82 8 -9 -13 23 -49 44 -49 9 0 30 -9 46 -20 33 -22 27
-25 -19 -11 -17 5 -50 15 -73 21 -24 6 -43 15 -43 20 0 6 -11 10 -24 10 -21 0
-24 4 -23 38 0 48 -23 108 -62 154 -26 31 -30 41 -21 57 12 23 1 34 -20 20
-29 -18 -40 -10 -40 29 0 20 -4 43 -9 51 -10 16 -31 6 -31 -15 0 -21 -18 -17
-31 8 -18 34 -18 90 0 114 23 31 42 17 80 -61z m1984 65 c3 -11 1 -20 -4 -20
-5 0 -9 9 -9 20 0 11 2 20 4 20 2 0 6 -9 9 -20z m-1963 -10 c0 -5 -2 -10 -4
-10 -3 0 -8 5 -11 10 -3 6 -1 10 4 10 6 0 11 -4 11 -10z m1837 -22 c-3 -8 -6
-5 -6 6 -1 11 2 17 5 13 3 -3 4 -12 1 -19z m46 -18 c3 -11 1 -18 -4 -14 -5 3
-9 12 -9 20 0 20 7 17 13 -6z m67 -26 c0 -14 -4 -22 -10 -19 -5 3 -10 17 -10
31 0 14 4 22 10 19 6 -3 10 -17 10 -31z m-243 -31 c-3 -10 -5 -4 -5 12 0 17 2
24 5 18 2 -7 2 -21 0 -30z m-123 -91 c4 -7 3 -12 -2 -12 -11 0 -22 35 -21 65
1 12 4 8 8 -11 4 -17 11 -36 15 -42z m296 44 c0 -8 -4 -17 -9 -20 -12 -8 -41
4 -41 16 0 6 7 8 15 4 8 -3 15 -1 15 4 0 6 5 10 10 10 6 0 10 -6 10 -14z
m-1960 -26 c0 -5 -2 -10 -4 -10 -3 0 -8 5 -11 10 -3 6 -1 10 4 10 6 0 11 -4
11 -10z m320 -14 c0 -11 -19 -15 -25 -6 -3 5 1 10 9 10 9 0 16 -2 16 -4z
m1498 -74 c11 2 16 -3 14 -14 -2 -10 2 -28 8 -40 10 -20 8 -19 -12 4 -74 85
-111 139 -73 108 12 -10 15 -9 16 6 0 11 7 0 16 -24 10 -29 20 -42 31 -40z
m87 48 c-3 -5 -12 -10 -18 -10 -7 0 -6 4 3 10 19 12 23 12 15 0z m30 -66 l-24
-69 3 53 c2 33 10 60 21 72 10 11 20 19 22 17 1 -2 -8 -35 -22 -73z m-1945 42
c0 -3 -4 -8 -10 -11 -5 -3 -10 -1 -10 4 0 6 5 11 10 11 6 0 10 -2 10 -4z m30
-31 c0 -5 -5 -3 -10 5 -5 8 -10 20 -10 25 0 6 5 3 10 -5 5 -8 10 -19 10 -25z
m260 -7 c0 -6 -7 -5 -15 2 -8 7 -15 17 -15 22 0 6 7 5 15 -2 8 -7 15 -17 15
-22z m1460 9 c11 -5 9 -6 -4 -4 -11 1 -21 9 -23 17 -3 10 -2 11 4 4 4 -6 15
-14 23 -17z m-1415 -58 c11 -17 -1 -21 -15 -4 -8 9 -8 15 -2 15 6 0 14 -5 17
-11z m275 -27 c11 -13 20 -30 20 -36 0 -6 -9 4 -20 22 -11 17 -26 32 -34 32
-8 0 -17 4 -20 9 -13 21 36 -3 54 -27z m1172 -16 c41 -18 54 -31 37 -41 -6 -4
-21 2 -33 14 -12 12 -26 21 -30 21 -8 0 -56 50 -56 58 0 3 10 -4 23 -16 12
-11 39 -28 59 -36z m207 8 c12 -27 7 -45 -8 -28 -14 14 -23 54 -13 54 5 0 14
-12 21 -26z m-83 -45 c13 -28 34 -53 45 -57 20 -8 19 -9 -5 -20 -14 -6 -26
-16 -26 -22 0 -5 -8 -10 -19 -10 -15 0 -19 -10 -24 -58 -4 -32 -5 -83 -3 -113
3 -54 2 -56 -15 -41 -13 11 -16 24 -12 44 4 21 2 28 -11 28 -12 0 -16 10 -17
38 -1 20 -2 46 -3 57 -1 14 10 25 37 37 42 19 46 36 17 63 -20 18 -25 51 -14
92 8 30 19 21 50 -38z m-239 -5 c-3 -3 -12 -4 -19 -1 -8 3 -5 6 6 6 11 1 17
-2 13 -5z m-1687 -48 c0 -26 -6 -18 -14 19 -5 22 -4 26 4 15 5 -8 10 -24 10
-34z m35 34 c3 -5 1 -10 -4 -10 -6 0 -11 5 -11 10 0 6 2 10 4 10 3 0 8 -4 11
-10z m2165 -60 c0 -5 -2 -10 -4 -10 -3 0 -8 5 -11 10 -3 6 -1 10 4 10 6 0 11
-4 11 -10z m-30 -77 c0 -7 -2 -13 -4 -13 -7 0 -46 66 -46 76 1 14 50 -49 50
-63z m-1833 12 c26 -24 43 -45 37 -45 -7 0 -19 11 -28 25 -9 14 -23 25 -31 25
-8 0 -19 9 -25 20 -16 30 -5 25 47 -25z m1739 31 c0 0 10 -18 22 -38 11 -20
17 -38 12 -40 -5 -2 4 -28 19 -58 15 -30 26 -61 23 -68 -2 -7 4 -22 14 -33 27
-30 1 -22 -29 9 -18 18 -24 31 -17 38 17 17 -21 78 -56 88 -35 10 -66 66 -37
66 9 0 13 -6 9 -15 -4 -13 20 -35 38 -35 17 0 2 48 -21 73 l-28 29 25 -7 c14
-4 25 -8 26 -9z m-109 -18 c-3 -8 -6 -5 -6 6 -1 11 2 17 5 13 3 -3 4 -12 1
-19z m-1883 -123 c-4 -8 -17 -15 -31 -15 -22 0 -24 2 -13 15 7 8 21 15 31 15
12 0 16 -5 13 -15z m1967 -24 c11 19 21 5 17 -24 l-3 -25 -40 36 c-29 25 -32
31 -11 18 23 -15 30 -16 37 -5z m-1721 -1 c21 -6 22 -8 8 -14 -9 -4 -29 -1
-45 8 -22 12 -24 15 -8 15 11 -1 31 -4 45 -9z m1420 0 c0 -5 -15 -10 -32 -10
-25 0 -29 3 -18 10 20 13 50 13 50 0z m-1485 -38 c-6 -7 -35 18 -35 31 0 5 9
2 20 -8 11 -10 18 -20 15 -23z m-265 14 c0 -2 -8 -10 -17 -17 -16 -13 -17 -12
-4 4 13 16 21 21 21 13z m727 -38 c6 -7 15 -29 22 -48 6 -20 29 -66 51 -104
22 -37 40 -72 40 -77 0 -5 -13 -9 -29 -9 -17 0 -32 -4 -36 -9 -3 -6 3 -42 14
-80 10 -39 17 -71 15 -71 -8 0 -32 58 -38 93 -5 28 -12 37 -26 37 -11 0 -20 7
-20 15 0 8 8 15 18 15 38 0 58 55 28 79 -7 6 -19 33 -26 59 -7 26 -21 62 -31
80 -14 24 -15 32 -5 32 8 0 18 -6 23 -12z m-796 -39 c-5 -13 -10 -19 -10 -12
-1 15 10 45 15 40 3 -2 0 -15 -5 -28z m508 -91 c36 -46 23 -39 -29 16 -27 29
-50 57 -50 63 0 5 -10 15 -22 22 -13 6 -15 9 -5 7 9 -3 17 0 17 7 0 6 15 -11
34 -38 19 -28 44 -62 55 -77z m1701 71 c0 -5 -4 -9 -10 -9 -5 0 -10 7 -10 16
0 8 5 12 10 9 6 -3 10 -10 10 -16z m-191 -41 c8 -36 -2 -78 -19 -78 -5 0 -10
5 -10 11 0 5 5 7 10 4 6 -3 10 -1 10 4 0 6 -7 11 -15 11 -8 0 -15 7 -15 15 0
9 6 12 16 8 15 -5 16 -1 10 33 -9 47 3 40 13 -8z m65 -13 c37 -38 36 -45 -6
-45 -23 0 -28 4 -28 24 0 13 -3 31 -6 40 -10 26 5 19 40 -19z m-2005 -25 c11
-24 11 -24 -3 -6 -9 11 -16 24 -16 30 0 12 5 7 19 -24z m268 -32 c-3 -7 -5 -2
-5 12 0 14 2 19 5 13 2 -7 2 -19 0 -25z m1503 6 c0 -2 -12 -4 -27 -4 -21 0
-24 3 -14 9 13 8 41 5 41 -5z m280 -64 c0 -9 6 -22 13 -29 10 -10 9 -11 -3 -6
-20 7 -52 64 -44 77 9 13 34 -19 34 -42z m-2154 -11 c19 -22 19 -22 -3 -8 -13
8 -23 17 -23 21 0 12 6 9 26 -13z m919 -39 c3 -5 2 -10 -4 -10 -5 0 -13 5 -16
10 -3 6 -2 10 4 10 5 0 13 -4 16 -10z m-485 -50 c0 -48 -1 -50 -20 -40 -27 15
-25 90 3 90 14 0 17 -9 17 -50z m216 -5 c10 -8 14 -15 7 -15 -19 0 -43 11 -43
21 0 13 14 11 36 -6z m1029 -53 c-9 -9 -25 19 -24 43 0 16 2 15 15 -8 9 -16
13 -32 9 -35z m-1415 -18 c12 -19 21 -37 18 -39 -2 -2 -14 14 -26 36 -28 49
-22 52 8 3z m436 -39 c11 -43 -2 -50 -24 -13 -28 46 -29 62 -2 48 11 -6 23
-22 26 -35z m-149 -61 c17 -8 35 -19 38 -25 4 -6 -8 -3 -26 6 -36 18 -109 83
-109 97 0 5 15 -8 32 -28 18 -20 47 -43 65 -50z m297 1 c3 -8 1 -15 -4 -15 -6
0 -10 7 -10 15 0 8 2 15 4 15 2 0 6 -7 10 -15z m-618 -26 c4 -8 1 -8 -14 0
-12 6 -24 16 -28 22 -4 8 -1 8 14 0 12 -6 24 -16 28 -22z m185 -58 c25 -11 53
-21 62 -21 9 0 19 -4 22 -10 4 -6 -5 -10 -21 -10 -25 0 -26 -2 -20 -32 l6 -33
-20 24 c-11 12 -18 27 -15 31 3 4 -3 10 -13 13 -9 2 -26 8 -36 13 -16 6 -18 4
-14 -19 4 -21 1 -27 -13 -27 -12 0 -16 5 -13 15 4 10 -4 20 -27 30 l-34 14 32
1 c27 0 31 3 29 24 -3 19 0 23 13 16 9 -4 37 -17 62 -29z m1619 -11 c0 -5 -4
-10 -10 -10 -5 0 -10 5 -10 10 0 6 5 10 10 10 6 0 10 -4 10 -10z m-1248 -64
c4 -6 8 -28 8 -48 l0 -37 -25 25 c-14 14 -25 34 -25 44 0 11 -7 20 -15 20 -8
0 -15 -7 -15 -17 0 -14 -2 -14 -20 2 -16 14 -17 20 -8 26 17 11 91 -1 100 -15z
m-228 -22 c4 -19 10 -42 13 -50 9 -23 -21 -15 -40 11 -11 16 -15 33 -11 50 9
37 31 31 38 -11z m129 -43 c15 -17 22 -31 17 -31 -6 0 -13 7 -16 15 -11 27
-24 5 -24 -38 0 -23 7 -51 15 -61 17 -23 19 -74 4 -96 -8 -11 -9 -5 -5 24 3
23 0 49 -8 65 -7 14 -16 62 -18 106 -3 44 -2 73 1 63 3 -9 18 -30 34 -47z
m-560 -11 c3 -12 0 -17 -8 -14 -7 3 -15 14 -18 24 -3 12 0 17 8 14 7 -3 15
-14 18 -24z m746 -22 c15 -42 14 -44 -9 -23 -16 14 -17 20 -8 27 10 6 8 8 -4
8 -10 0 -18 7 -18 15 0 25 28 5 39 -27z m-526 -103 c1 -81 -24 -194 -36 -162
-3 8 1 37 9 64 18 55 13 133 -11 169 -13 21 -13 23 0 18 11 -4 15 1 16 17 l0
24 10 -25 c6 -14 11 -61 12 -105z m230 61 c-3 -4 -9 -2 -14 5 -13 22 -11 31 5
17 8 -7 12 -17 9 -22z m1491 -128 c-6 -72 -5 -80 13 -93 16 -11 22 -31 28 -82
6 -58 5 -69 -11 -80 -29 -21 -77 -16 -93 9 -12 20 -11 24 18 47 31 26 31 27
31 116 0 50 -4 97 -10 105 -5 9 -5 19 1 26 6 7 6 22 -1 40 -11 28 -11 28 10 9
18 -17 20 -26 14 -97z m-1265 52 c11 -24 11 -24 -3 -6 -9 11 -16 24 -16 30 0
12 5 7 19 -24z m71 20 c0 -5 -2 -10 -4 -10 -3 0 -8 5 -11 10 -3 6 -1 10 4 10
6 0 11 -4 11 -10z m340 -4 c0 -8 13 -24 29 -35 32 -23 90 -126 78 -138 -5 -4
-13 1 -19 12 -16 29 -114 125 -127 125 -17 0 -13 21 7 36 22 17 32 17 32 0z
m-360 -133 c0 -17 -26 -17 -33 0 -3 7 -2 26 1 43 l5 29 13 -30 c7 -16 13 -36
14 -42z m104 -9 c9 -24 7 -28 -9 -14 -17 14 -20 30 -6 30 5 0 12 -7 15 -16z
m151 -84 c44 -44 73 -80 65 -80 -14 0 -27 10 -101 85 -43 42 -65 75 -52 75 5
0 44 -36 88 -80z m-568 18 c24 -22 21 -87 -4 -67 -10 9 -11 14 -2 20 18 11 3
38 -28 50 -16 7 -23 13 -15 16 6 3 12 12 13 21 0 13 2 13 8 -3 5 -11 17 -28
28 -37z m113 28 c0 -11 -19 -15 -25 -6 -3 5 1 10 9 10 9 0 16 -2 16 -4z m122
-88 c-6 -6 -17 5 -31 27 -29 50 -26 55 10 16 19 -21 27 -37 21 -43z m-322 17
c11 -13 10 -14 -4 -9 -9 3 -16 10 -16 15 0 13 6 11 20 -6z m-417 -41 c-4 -10
2 -17 16 -21 26 -7 28 -23 2 -23 -23 0 -36 16 -45 53 -6 26 -5 27 13 17 13 -6
18 -16 14 -26z m947 -17 c0 -5 -4 -5 -10 -2 -5 3 -10 14 -10 23 0 15 2 15 10
2 5 -8 10 -19 10 -23z m61 -23 c23 -25 23 -26 2 -13 -13 7 -25 19 -27 26 -8
19 -2 16 25 -13z m-261 7 c0 -6 -4 -13 -10 -16 -5 -3 -10 1 -10 9 0 9 5 16 10
16 6 0 10 -4 10 -9z m-237 -21 c-6 -23 -5 -22 -28 -13 -15 5 -14 8 6 19 13 7
25 13 26 14 0 0 -1 -9 -4 -20z m361 -35 c9 -14 15 -25 13 -25 -2 0 -14 11 -27
25 -13 14 -19 25 -13 25 6 0 18 -11 27 -25z m-619 -6 c11 -17 -1 -21 -15 -4
-8 9 -8 15 -2 15 6 0 14 -5 17 -11z m1196 -26 c13 -16 12 -17 -3 -4 -10 7 -24
11 -32 8 -8 -3 -17 0 -19 8 -13 32 26 24 54 -12z m-151 -100 c0 -7 -7 -10 -15
-7 -8 4 -15 15 -15 25 0 10 -4 19 -10 19 -5 0 -15 10 -21 23 -9 16 -2 13 25
-12 20 -19 36 -41 36 -48z m355 63 c57 -4 60 -5 60 -30 l1 -26 -21 20 c-26 25
-44 25 -53 2 -6 -17 -11 -15 -51 15 -34 26 -38 33 -20 29 13 -3 51 -8 84 -10z
m-1141 -11 c-4 -8 -8 -15 -10 -15 -2 0 -4 7 -4 15 0 8 4 15 10 15 5 0 7 -7 4
-15z m686 0 c0 -8 -4 -15 -10 -15 -5 0 -10 7 -10 15 0 8 5 15 10 15 6 0 10 -7
10 -15z m590 -45 c0 -6 -9 -2 -20 7 -11 10 -20 19 -20 21 0 1 9 -2 20 -8 11
-6 20 -15 20 -20z m-115 -41 c11 -17 -1 -21 -15 -4 -8 9 -8 15 -2 15 6 0 14
-5 17 -11z"/>
<path d="M790 2335 c0 -9 5 -15 11 -13 6 2 11 8 11 13 0 5 -5 11 -11 13 -6 2
-11 -4 -11 -13z"/>
<path d="M840 1400 c0 -5 5 -10 11 -10 5 0 7 5 4 10 -3 6 -8 10 -11 10 -2 0
-4 -4 -4 -10z"/>
<path d="M2055 2960 c3 -5 11 -10 16 -10 6 0 7 5 4 10 -3 6 -11 10 -16 10 -6
0 -7 -4 -4 -10z"/>
<path d="M320 2926 c0 -9 5 -16 10 -16 6 0 10 4 10 9 0 6 -4 13 -10 16 -5 3
-10 -1 -10 -9z"/>
<path d="M630 2930 c0 -5 5 -10 11 -10 5 0 7 5 4 10 -3 6 -8 10 -11 10 -2 0
-4 -4 -4 -10z"/>
<path d="M350 2860 c0 -5 5 -10 10 -10 6 0 10 5 10 10 0 6 -4 10 -10 10 -5 0
-10 -4 -10 -10z"/>
<path d="M613 2863 c-23 -9 -14 -25 10 -18 31 10 45 25 22 24 -11 0 -26 -3
-32 -6z"/>
<path d="M30 2813 c0 -5 5 -15 10 -23 8 -12 10 -11 10 8 0 12 -4 22 -10 22 -5
0 -10 -3 -10 -7z"/>
<path d="M11 2778 c-1 -15 4 -30 9 -33 12 -7 12 12 0 40 -8 18 -9 17 -9 -7z"/>
<path d="M1370 2780 c0 -5 5 -10 10 -10 6 0 10 5 10 10 0 6 -4 10 -10 10 -5 0
-10 -4 -10 -10z"/>
<path d="M3050 2730 c0 -5 4 -10 9 -10 6 0 13 5 16 10 3 6 -1 10 -9 10 -9 0
-16 -4 -16 -10z"/>
<path d="M72 2680 c0 -14 2 -19 5 -12 2 6 2 18 0 25 -3 6 -5 1 -5 -13z"/>
<path d="M873 2693 c-18 -7 -16 -23 2 -23 8 0 15 7 15 15 0 8 -1 15 -2 14 -2
0 -9 -3 -15 -6z"/>
<path d="M1390 2690 c0 -5 5 -10 11 -10 5 0 7 5 4 10 -3 6 -8 10 -11 10 -2 0
-4 -4 -4 -10z"/>
<path d="M933 2678 c2 -7 10 -13 17 -13 7 0 15 6 18 13 2 7 -5 12 -18 12 -13
0 -20 -5 -17 -12z"/>
<path d="M2345 2649 c-8 -12 23 -49 42 -49 18 0 17 25 -3 44 -18 19 -30 20
-39 5z"/>
<path d="M1425 2367 c-7 -16 34 -151 42 -143 6 5 -18 127 -28 146 -7 13 -9 12
-14 -3z"/>
<path d="M2350 2175 c0 -8 2 -15 4 -15 2 0 11 -3 20 -6 23 -9 20 13 -4 26 -16
9 -20 8 -20 -5z"/>
<path d="M1700 2122 c0 -5 11 -19 25 -32 24 -22 25 -22 25 -4 0 11 -5 25 -12
32 -14 14 -38 16 -38 4z"/>
<path d="M2871 1994 c-30 -38 -33 -71 -29 -314 2 -183 6 -222 18 -230 24 -15
27 -13 45 34 10 25 23 47 31 50 21 8 17 -5 -22 -69 -40 -67 -39 -78 7 -148 39
-59 73 -84 93 -68 11 9 14 0 20 -46 3 -32 9 -74 12 -93 l7 -35 -22 27 c-11 14
-21 34 -21 43 0 20 -75 121 -96 129 -24 9 -24 9 -24 -37 0 -79 68 -248 132
-330 30 -38 50 -42 41 -8 -3 10 0 22 6 25 7 5 8 1 4 -10 -4 -11 -3 -15 5 -10
7 4 12 -9 14 -40 2 -38 8 -51 32 -68 21 -15 30 -17 33 -8 3 6 18 12 35 12 24
0 29 3 24 16 -4 9 0 24 8 33 16 17 11 61 -5 61 -5 0 -9 8 -9 18 0 10 -15 32
-32 49 -33 31 -47 47 -61 70 -15 25 26 0 64 -38 51 -51 94 -73 118 -60 34 19
82 82 76 101 -9 29 37 64 58 44 3 -4 -1 -21 -10 -38 -9 -17 -17 -49 -17 -71
-1 -37 -3 -40 -28 -38 -18 1 -28 -3 -28 -11 0 -20 20 -33 62 -41 30 -6 38 -4
47 13 6 12 11 34 11 50 0 16 13 45 30 68 16 21 30 48 30 59 0 11 4 26 9 33 8
14 21 -61 21 -129 0 -24 5 -39 16 -43 23 -9 24 -8 24 18 0 14 5 28 11 32 8 4
9 29 4 76 -5 59 -4 73 11 89 18 20 78 26 89 9 13 -21 25 -9 25 24 0 20 6 36
14 39 9 4 12 14 9 28 -4 15 1 27 18 41 16 14 18 18 7 14 -12 -3 -18 0 -18 9 0
8 7 15 15 15 15 0 21 35 7 43 -4 3 -4 47 0 99 10 147 9 454 -2 483 -19 51 -46
54 -431 55 -290 0 -359 -3 -382 -15 -27 -14 -57 -11 -57 6 0 18 -29 8 -49 -17z
m863 -110 c11 -28 6 -52 -11 -59 -15 -5 -16 -4 -5 6 21 22 15 42 -12 35 -20
-5 -23 -3 -19 14 6 24 38 27 47 4z m-420 -34 c-2 -34 -14 -52 -21 -32 -3 7
-11 19 -19 27 -12 12 -11 16 8 29 28 20 35 14 32 -24z m-121 -5 c-3 -9 -8 -14
-10 -11 -3 3 -2 9 2 15 9 16 15 13 8 -4z m81 -93 c2 -45 0 -85 -5 -88 -5 -3
-6 2 -3 10 4 11 0 16 -15 16 -19 0 -21 6 -21 63 0 59 12 91 32 85 5 -2 10 -40
12 -86z m-193 35 c-13 -12 -20 -15 -16 -7 14 26 28 41 33 35 3 -3 -5 -16 -17
-28z m106 -36 c-1 -21 -5 -37 -9 -34 -11 6 -10 73 1 73 5 0 8 -18 8 -39z m355
14 c3 -14 1 -28 -3 -31 -5 -3 -9 9 -9 25 0 38 6 40 12 6z m75 -3 c-10 -10 -17
-30 -17 -45 0 -30 -15 -44 -24 -21 -9 23 20 84 40 84 16 0 16 -1 1 -18z m143
4 c0 -11 -19 -15 -25 -6 -3 5 1 10 9 10 9 0 16 -2 16 -4z m-640 -82 c-18 -21
-24 -10 -8 15 7 12 14 17 16 11 2 -6 -2 -17 -8 -26z m149 -56 c1 17 21 15 21
-3 0 -8 -4 -15 -9 -15 -6 0 -23 -28 -40 -62 -27 -56 -30 -60 -36 -38 -4 17 3
46 21 85 22 51 28 57 35 40 4 -11 8 -14 8 -7z m-252 -30 c-3 -7 -5 -2 -5 12 0
14 2 19 5 13 2 -7 2 -19 0 -25z m583 17 c-7 -9 -15 -13 -17 -11 -7 7 7 26 19
26 6 0 6 -6 -2 -15z m140 -45 c0 -5 -5 -10 -11 -10 -5 0 -7 5 -4 10 3 6 8 10
11 10 2 0 4 -4 4 -10z m-69 -109 c-12 -22 0 -37 24 -27 9 3 6 -10 -11 -41 -25
-49 -31 -104 -14 -148 8 -21 7 -26 -2 -22 -7 2 -20 -1 -28 -9 -13 -11 -15 -6
-11 38 3 50 3 51 -23 44 -20 -5 -24 -3 -20 9 4 8 13 14 21 13 9 -2 19 7 24 20
6 16 5 22 -6 22 -21 0 -20 64 1 81 8 7 23 26 32 43 12 23 17 27 20 14 2 -9 -2
-26 -7 -37z m-441 -25 c0 -3 -4 -8 -10 -11 -5 -3 -10 -1 -10 4 0 6 5 11 10 11
6 0 10 -2 10 -4z m270 -35 c0 -52 24 -65 55 -31 10 11 22 17 27 12 14 -14 -2
-40 -38 -61 -19 -11 -34 -27 -34 -35 0 -10 -6 -13 -15 -10 -11 5 -17 -3 -21
-25 -6 -30 -34 -65 -34 -43 0 6 5 14 10 17 6 3 10 16 10 29 0 13 9 31 20 41
24 22 25 47 4 80 -15 24 -12 45 7 45 5 0 9 -9 9 -19z m-223 3 c-3 -3 -12 -4
-19 -1 -8 3 -5 6 6 6 11 1 17 -2 13 -5z m-42 -14 c-4 -6 -2 -17 5 -25 9 -11 7
-16 -9 -24 -25 -14 -51 -14 -51 -1 0 6 12 22 28 35 30 27 36 30 27 15z m35
-104 c0 -3 -4 -8 -10 -11 -5 -3 -10 -1 -10 4 0 6 5 11 10 11 6 0 10 -2 10 -4z
m130 -140 c0 -3 -4 -8 -10 -11 -5 -3 -10 -1 -10 4 0 6 5 11 10 11 6 0 10 -2
10 -4z m-410 -41 c11 -13 8 -15 -19 -15 -31 0 -42 14 -18 23 20 9 24 8 37 -8z
m110 -99 c0 -2 -7 -7 -16 -10 -8 -3 -12 -2 -9 4 6 10 25 14 25 6z"/>
<path d="M3630 1390 c0 -5 4 -10 9 -10 6 0 13 5 16 10 3 6 -1 10 -9 10 -9 0
-16 -4 -16 -10z"/>
<path d="M1360 1885 c-20 -24 -8 -50 26 -53 39 -4 60 18 44 47 -13 24 -52 28
-70 6z"/>
<path d="M1840 1859 c0 -5 5 -7 10 -4 6 3 10 8 10 11 0 2 -4 4 -10 4 -5 0 -10
-5 -10 -11z"/>
<path d="M1765 1840 c-3 -5 -2 -10 4 -10 5 0 13 5 16 10 3 6 2 10 -4 10 -5 0
-13 -4 -16 -10z"/>
<path d="M1370 1725 c0 -9 5 -25 10 -36 7 -13 7 -19 0 -19 -17 0 -11 -43 10
-77 14 -24 15 -31 5 -26 -21 8 -18 -11 5 -32 18 -16 18 -19 4 -29 -14 -10 -13
-14 5 -30 20 -18 21 -18 52 0 40 24 48 44 20 51 -26 7 -26 15 -1 38 25 23 27
83 4 92 -9 3 -20 0 -24 -7 -11 -18 -30 -3 -30 24 0 12 -3 26 -7 30 -5 4 -8 13
-8 19 0 7 -10 13 -22 15 -16 2 -23 -2 -23 -13z m65 -115 c10 -11 15 -23 12
-26 -4 -4 -10 1 -13 10 -4 10 -16 22 -28 26 -15 6 -16 9 -5 9 9 1 24 -8 34
-19z"/>
<path d="M1440 1710 c0 -5 5 -10 10 -10 6 0 10 5 10 10 0 6 -4 10 -10 10 -5 0
-10 -4 -10 -10z"/>
<path d="M1535 1660 c-3 -5 -1 -10 4 -10 6 0 11 5 11 10 0 6 -2 10 -4 10 -3 0
-8 -4 -11 -10z"/>
<path d="M1803 1603 c-19 -7 -16 -48 6 -74 17 -21 20 -22 26 -7 9 23 2 81 -10
84 -5 1 -16 0 -22 -3z"/>
<path d="M1353 1453 c-7 -2 -13 -13 -13 -24 0 -10 6 -19 13 -19 22 0 38 16 31
33 -6 18 -10 19 -31 10z"/>
<path d="M1224 1439 c-8 -14 14 -29 44 -29 15 0 22 6 22 20 0 15 -7 20 -29 20
-17 0 -33 -5 -37 -11z"/>
<path d="M1137 1433 c-4 -3 -7 -21 -7 -40 0 -29 3 -33 26 -33 22 0 24 3 18 23
-10 31 -30 58 -37 50z"/>
<path d="M1650 1419 c0 -16 20 -49 29 -49 15 0 22 32 10 46 -14 17 -39 19 -39
3z"/>
<path d="M5095 1390 c-3 -5 -1 -10 4 -10 6 0 11 5 11 10 0 6 -2 10 -4 10 -3 0
-8 -4 -11 -10z"/>
<path d="M4798 1347 c-14 -33 -9 -66 12 -77 21 -11 27 -1 11 16 -5 5 -11 25
-13 44 -2 27 -5 31 -10 17z"/>
<path d="M1030 1330 c0 -5 5 -10 10 -10 6 0 10 5 10 10 0 6 -4 10 -10 10 -5 0
-10 -4 -10 -10z"/>
<path d="M1600 1300 c0 -5 5 -10 10 -10 6 0 10 5 10 10 0 6 -4 10 -10 10 -5 0
-10 -4 -10 -10z"/>
<path d="M1385 1280 c3 -5 8 -10 11 -10 2 0 4 5 4 10 0 6 -5 10 -11 10 -5 0
-7 -4 -4 -10z"/>
<path d="M4887 1283 c-13 -12 -7 -23 13 -23 11 0 20 7 20 15 0 15 -21 21 -33
8z"/>
<path d="M3785 1270 c-3 -5 -2 -10 4 -10 5 0 13 5 16 10 3 6 2 10 -4 10 -5 0
-13 -4 -16 -10z"/>
<path d="M3807 1233 c-11 -10 -8 -35 3 -28 6 4 8 10 5 15 -3 4 1 11 7 13 7 3
8 6 2 6 -6 1 -14 -2 -17 -6z"/>
<path d="M3850 1195 c-7 -8 -18 -15 -25 -15 -7 0 -16 -7 -19 -16 -5 -14 -4
-15 9 -4 13 11 15 7 15 -29 0 -22 -4 -41 -10 -41 -5 0 -9 -3 -9 -7 4 -27 -1
-35 -16 -23 -13 11 -15 7 -15 -23 0 -26 6 -39 19 -47 26 -14 31 -13 31 5 0 9
7 27 16 40 11 18 14 35 9 65 -6 36 -4 41 18 49 33 13 41 38 17 51 -24 13 -25
13 -40 -5z"/>
<path d="M4784 1082 c-56 -53 -116 -118 -134 -145 -23 -31 -36 -43 -41 -35 -5
8 -10 4 -14 -13 -3 -13 -20 -31 -37 -40 -35 -17 -48 -39 -24 -39 13 0 12 -4
-4 -20 -17 -17 -20 -33 -20 -111 0 -83 2 -90 18 -84 9 5 35 13 57 19 53 15
198 92 221 117 11 13 19 41 22 79 l4 60 49 0 c27 0 49 4 49 8 0 20 -28 32 -71
32 -25 0 -60 3 -77 6 l-31 6 19 27 c10 14 35 53 57 85 21 33 46 71 55 85 18
27 24 61 11 61 -5 0 -53 -44 -109 -98z"/>
<path d="M1630 1150 c0 -5 5 -10 11 -10 5 0 7 5 4 10 -3 6 -8 10 -11 10 -2 0
-4 -4 -4 -10z"/>
<path d="M1557 1133 c-12 -11 -7 -40 8 -53 9 -7 14 -19 11 -27 -7 -18 0 -16
24 4 21 18 28 63 10 63 -5 0 -10 -4 -10 -10 0 -5 -7 -10 -16 -10 -11 0 -14 6
-9 20 6 19 -5 27 -18 13z"/>
<path d="M3887 1133 c-4 -3 -7 -11 -7 -17 0 -6 5 -5 12 2 6 6 9 14 7 17 -3 3
-9 2 -12 -2z"/>
<path d="M3653 1108 c-12 -16 -15 -58 -4 -58 12 0 27 21 35 48 8 25 -14 32
-31 10z"/>
<path d="M4560 1090 c20 -13 43 -13 35 0 -3 6 -16 10 -28 10 -18 0 -19 -2 -7
-10z"/>
<path d="M3745 1080 c-3 -5 -1 -10 4 -10 6 0 11 5 11 10 0 6 -2 10 -4 10 -3 0
-8 -4 -11 -10z"/>
<path d="M1806 1071 c-10 -16 5 -41 24 -41 25 0 35 18 20 35 -14 17 -36 20
-44 6z"/>
<path d="M3926 1053 c-11 -12 -6 -41 9 -47 11 -4 15 1 15 19 0 25 -12 39 -24
28z"/>
<path d="M4275 1029 c-10 -15 -2 -19 24 -12 17 4 19 8 9 14 -18 12 -26 11 -33
-2z"/>
<path d="M1625 1020 c-3 -6 1 -7 9 -4 18 7 21 14 7 14 -6 0 -13 -4 -16 -10z"/>
<path d="M4580 1020 c0 -5 5 -10 10 -10 6 0 10 5 10 10 0 6 -4 10 -10 10 -5 0
-10 -4 -10 -10z"/>
<path d="M3510 1004 c0 -8 5 -12 10 -9 6 4 8 11 5 16 -9 14 -15 11 -15 -7z"/>
<path d="M3653 982 c-12 -39 -9 -52 11 -52 16 0 37 45 30 64 -11 29 -30 23
-41 -12z"/>
<path d="M3690 930 c0 -5 5 -10 11 -10 5 0 7 5 4 10 -3 6 -8 10 -11 10 -2 0
-4 -4 -4 -10z"/>
<path d="M4610 929 c0 -5 5 -7 10 -4 6 3 10 8 10 11 0 2 -4 4 -10 4 -5 0 -10
-5 -10 -11z"/>
<path d="M3599 883 c-1 -5 -1 -11 0 -15 0 -5 -10 -8 -24 -8 -28 0 -34 -15 -9
-24 51 -20 112 12 82 42 -13 13 -47 16 -49 5z"/>
<path d="M1710 846 c0 -8 5 -18 10 -21 6 -3 10 1 10 9 0 8 -4 18 -10 21 -5 3
-10 -1 -10 -9z"/>
<path d="M3458 842 c-31 -6 -19 -18 29 -29 53 -13 62 -10 44 11 -13 15 -47 24
-73 18z"/>
<path d="M3895 840 c-22 -5 -84 -15 -139 -24 -103 -16 -141 -35 -133 -68 3
-10 1 -18 -4 -18 -5 0 -9 -5 -9 -11 0 -5 5 -7 11 -3 7 4 10 1 7 -7 -3 -9 -25
-15 -66 -17 -52 -3 -64 -7 -82 -29 -32 -41 -23 -67 24 -71 28 -2 42 1 48 12
13 24 28 19 28 -8 0 -16 8 -27 28 -34 49 -20 101 -25 117 -12 10 9 15 9 15 1
0 -23 30 -10 46 20 11 23 19 28 27 20 16 -16 27 -13 27 7 0 10 7 27 15 38 20
26 19 34 -6 34 -18 0 -20 2 -9 15 11 13 15 13 22 3 6 -9 7 -6 3 9 -4 15 1 28
16 42 28 26 49 27 49 2 0 -33 20 -35 51 -5 25 24 33 26 56 18 39 -13 46 -51
16 -91 -49 -66 -13 -189 37 -128 9 11 16 13 24 5 16 -16 26 -12 26 11 l0 20
26 -20 c15 -12 34 -21 43 -21 14 1 14 2 -1 14 -10 7 -18 21 -18 32 0 14 3 15
12 6 9 -9 16 -8 30 5 22 20 24 35 3 27 -16 -6 -54 31 -55 53 0 15 51 43 79 43
14 0 18 -5 14 -19 -5 -19 19 -31 64 -31 28 0 40 38 23 72 -28 53 -51 68 -106
68 -29 0 -63 4 -76 9 -80 30 -216 45 -283 31z m405 -70 c0 -5 -8 -10 -17 -10
-15 0 -16 2 -3 10 19 12 20 12 20 0z m-198 -128 c7 -23 -17 -56 -32 -47 -9 6
-9 9 0 15 6 4 13 16 15 26 4 24 4 24 9 24 2 0 6 -8 8 -18z"/>
<path d="M4416 801 c-4 -7 -5 -15 -2 -18 9 -9 19 4 14 18 -4 11 -6 11 -12 0z"/>
<path d="M4847 803 c-4 -3 -7 -11 -7 -17 0 -6 5 -5 12 2 6 6 9 14 7 17 -3 3
-9 2 -12 -2z"/>
<path d="M3220 769 c0 -5 5 -7 10 -4 6 3 10 8 10 11 0 2 -4 4 -10 4 -5 0 -10
-5 -10 -11z"/>
<path d="M3195 750 c-3 -5 -1 -10 4 -10 6 0 11 5 11 10 0 6 -2 10 -4 10 -3 0
-8 -4 -11 -10z"/>
<path d="M1690 660 c0 -5 5 -10 11 -10 5 0 7 5 4 10 -3 6 -8 10 -11 10 -2 0
-4 -4 -4 -10z"/>
<path d="M4430 650 c-12 -12 -18 -25 -15 -30 3 -5 1 -12 -5 -15 -6 -4 -8 -15
-5 -26 4 -11 2 -19 -4 -19 -6 0 -11 -5 -11 -10 0 -6 7 -7 18 -1 9 5 31 13 47
18 17 4 28 11 26 13 -2 3 1 15 8 28 8 16 9 27 1 42 -14 26 -35 25 -60 0z"/>
<path d="M3897 638 c-7 -25 -3 -33 12 -23 13 8 15 45 2 45 -5 0 -11 -10 -14
-22z"/>
<path d="M3965 650 c-3 -5 1 -10 9 -10 9 0 16 5 16 10 0 6 -4 10 -9 10 -6 0
-13 -4 -16 -10z"/>
<path d="M1705 610 c3 -5 8 -10 11 -10 2 0 4 5 4 10 0 6 -5 10 -11 10 -5 0 -7
-4 -4 -10z"/>
<path d="M3875 590 c-3 -5 1 -10 10 -10 9 0 13 5 10 10 -3 6 -8 10 -10 10 -2
0 -7 -4 -10 -10z"/>
<path d="M4363 564 c-12 -13 -18 -24 -14 -24 10 0 45 39 40 44 -2 3 -14 -6
-26 -20z"/>
<path d="M3910 554 c0 -3 5 -14 10 -25 8 -14 21 -19 50 -19 33 0 40 3 40 20 0
22 -20 26 -38 8 -9 -9 -16 -8 -30 5 -19 17 -32 22 -32 11z"/>
</g>
</svg>
